<svg xmlns="http://www.w3.org/2000/svg" xmlns:xlink="http://www.w3.org/1999/xlink" width="145.726" height="138.786" viewBox="0 0 145.726 138.786"><defs><style>.a{opacity:0.1;}.a,.b,.c{fill:url(#a);}.b{opacity:0.5;}.d{fill:#fff;stroke:#fff;stroke-width:1.4px;}.e{fill:#fca309;}.f{fill:#fd8e09;}.g{fill:#0b8040;}.h{fill:#0b6232;}.i{fill:#21a7dd;}.j{fill:#0d8dc0;}.k{fill:#fdbc00;}.l{fill:#ff6381;}.m{fill:#0a617d;}</style><linearGradient id="a" x1="0.5" x2="0.5" y2="1.126" gradientUnits="objectBoundingBox"><stop offset="0" stop-color="#ffcb42"/><stop offset="1" stop-color="#f9a524"/></linearGradient></defs><g transform="translate(-24)"><circle class="a" cx="56.776" cy="56.776" r="56.776" transform="translate(39.14 17.664)"/><circle class="b" cx="43.511" cy="43.511" r="43.511" transform="translate(52.406 30.929)"/><circle class="c" cx="30.245" cy="30.245" r="30.245" transform="translate(65.671 44.195)"/><path class="d" d="M143.139,104.4h0a1.914,1.914,0,0,0-2.706,0l-12.684,12.684-6.529-6.529a1.913,1.913,0,0,0-2.706,2.706l7.881,7.882a1.914,1.914,0,0,0,2.706,0l14.037-14.037h0A1.914,1.914,0,0,0,143.139,104.4Z" transform="translate(-34.684 -38.334)"/><path class="e" d="M169.905.354l1.8,3.289a.681.681,0,0,0,.271.27l3.289,1.8a.68.68,0,0,1,0,1.194l-3.289,1.8a.681.681,0,0,0-.271.27l-1.8,3.289a.68.68,0,0,1-1.194,0l-1.8-3.289a.681.681,0,0,0-.271-.27l-3.289-1.8a.68.68,0,0,1,0-1.194l3.289-1.8a.681.681,0,0,0,.271-.27l1.8-3.289A.68.68,0,0,1,169.905.354Z" transform="translate(-51.312 0)"/><path class="f" d="M178.131,5.712l-3.289-1.8a.681.681,0,0,1-.271-.27l-1.8-3.289a.68.68,0,0,0-1.194,0l-.81,1.481.553,1.011a3.78,3.78,0,0,0,1.5,1.5,2.234,2.234,0,0,1,0,3.919,3.78,3.78,0,0,0-1.5,1.5l-.553,1.011.81,1.481a.68.68,0,0,0,1.194,0l1.8-3.289a.681.681,0,0,1,.271-.27l3.289-1.8A.68.68,0,0,0,178.131,5.712Z" transform="translate(-54.181)"/><path class="g" d="M36.143,50.212l1.079,1.973a.409.409,0,0,0,.162.162l1.973,1.079a.408.408,0,0,1,0,.716l-1.973,1.079a.409.409,0,0,0-.162.162l-1.079,1.973a.408.408,0,0,1-.716,0l-1.079-1.973a.409.409,0,0,0-.162-.162l-1.973-1.079a.408.408,0,0,1,0-.716l1.973-1.079a.408.408,0,0,0,.162-.162l1.079-1.973A.408.408,0,0,1,36.143,50.212Z" transform="translate(-2.953 -18.458)"/><path class="h" d="M41.079,53.427l-1.973-1.079a.409.409,0,0,1-.162-.162l-1.079-1.973a.408.408,0,0,0-.716,0l-.486.889.332.607a2.268,2.268,0,0,0,.9.9,1.34,1.34,0,0,1,0,2.352,2.268,2.268,0,0,0-.9.9l-.332.607.486.889a.408.408,0,0,0,.716,0l1.079-1.973a.409.409,0,0,1,.162-.162l1.973-1.079A.408.408,0,0,0,41.079,53.427Z" transform="translate(-4.674 -18.458)"/><path class="e" d="M28.143,167.213l1.079,1.973a.411.411,0,0,0,.162.163l1.973,1.079a.408.408,0,0,1,0,.717l-1.973,1.079a.411.411,0,0,0-.162.163l-1.079,1.973a.408.408,0,0,1-.716,0l-1.079-1.973a.411.411,0,0,0-.162-.163l-1.973-1.079a.408.408,0,0,1,0-.717l1.973-1.079a.413.413,0,0,0,.162-.162l1.079-1.973A.408.408,0,0,1,28.143,167.213Z" transform="translate(0 -61.649)"/><path class="f" d="M33.079,170.427l-1.973-1.079a.41.41,0,0,1-.162-.163l-1.079-1.973a.408.408,0,0,0-.716,0l-.486.888.332.607a2.269,2.269,0,0,0,.9.9,1.34,1.34,0,0,1,0,2.352,2.269,2.269,0,0,0-.9.9l-.332.607.486.888a.408.408,0,0,0,.716,0l1.079-1.973a.41.41,0,0,1,.162-.163l1.973-1.079A.409.409,0,0,0,33.079,170.427Z" transform="translate(-1.721 -61.649)"/><path class="i" d="M227.143,35.212l1.079,1.973a.413.413,0,0,0,.162.162l1.973,1.079a.408.408,0,0,1,0,.716l-1.973,1.079a.411.411,0,0,0-.163.162l-1.079,1.973a.408.408,0,0,1-.717,0l-1.079-1.973a.411.411,0,0,0-.163-.162l-1.973-1.079a.408.408,0,0,1,0-.716l1.973-1.079a.41.41,0,0,0,.163-.162l1.079-1.973A.408.408,0,0,1,227.143,35.212Z" transform="translate(-73.462 -12.92)"/><path class="j" d="M232.079,38.427l-1.973-1.079a.41.41,0,0,1-.163-.162l-1.079-1.973a.408.408,0,0,0-.717,0l-.486.889.332.607a2.269,2.269,0,0,0,.9.9,1.34,1.34,0,0,1,0,2.352,2.269,2.269,0,0,0-.9.9l-.332.607.486.889a.408.408,0,0,0,.717,0l1.079-1.973a.411.411,0,0,1,.163-.162l1.973-1.079A.408.408,0,0,0,232.079,38.427Z" transform="translate(-75.183 -12.92)"/><path class="k" d="M250.893,87.785a1.893,1.893,0,0,0,0-3.785A1.893,1.893,0,1,0,250.893,87.785Z" transform="translate(-83.06 -31.009)"/><path class="k" d="M186.893,217.785a1.893,1.893,0,0,0,0-3.785A1.893,1.893,0,0,0,186.893,217.785Z" transform="translate(-59.434 -78.999)"/><path class="l" d="M80.035,11.521a1.778,1.778,0,0,0-2.514,2.514l4.646,4.645a1.778,1.778,0,1,0,2.514-2.514Z" transform="translate(-19.565 -4.061)"/><path class="m" d="M56.166,190.52l-4.646,4.646a1.778,1.778,0,1,0,2.514,2.514l4.646-4.645a1.778,1.778,0,1,0-2.514-2.515Z" transform="translate(-9.967 -70.139)"/></g></svg>