<svg xmlns="http://www.w3.org/2000/svg" width="28.335" height="28.304" viewBox="0 0 28.335 28.304">
  <path id="Path_805" data-name="Path 805" d="M19.167,17.032a23.963,23.963,0,0,0-6.611.913V13.663l8.438-3.621a.614.614,0,0,0,0-1.133L12.178,5.131h0a.284.284,0,0,0-.157-.031H11.8c-.031,0-.063,0-.063.031h-.031c-.031,0-.031.031-.063.031a.031.031,0,0,0-.031.031c-.031,0-.031.031-.063.031l-.031.031c-.031.031-.031.031-.031.063l-.031.031c-.031.031-.031.063-.063.094h0c-.031.031-.031.063-.031.126V5.7h0v7.556h0v5.1C7.487,19.834,5,22.321,5,25.218c0,4.6,6.234,8.186,14.167,8.186s14.167-3.589,14.167-8.186S27.1,17.032,19.167,17.032ZM12.556,12.31V6.643l6.58,2.833Zm6.611,19.834c-7.115,0-12.908-3.117-12.908-6.926,0-2.235,1.983-4.219,5.037-5.478v5.478c0,1.417,1.511,2.519,3.463,2.519s3.463-1.1,3.463-2.519S16.712,22.7,14.76,22.7a4.4,4.4,0,0,0-2.2.567v-4a21.463,21.463,0,0,1,6.611-.976c7.115,0,12.908,3.117,12.908,6.926S26.283,32.144,19.167,32.144Zm-6.611-6.926c0-.6.913-1.259,2.2-1.259s2.2.661,2.2,1.259-.913,1.259-2.2,1.259S12.556,25.816,12.556,25.218ZM24.52,22.7a2.519,2.519,0,1,0,2.519,2.519A2.526,2.526,0,0,0,24.52,22.7Zm0,3.778a1.259,1.259,0,1,1,1.259-1.259A1.263,1.263,0,0,1,24.52,26.477Z" transform="translate(-5 -5.1)" fill="#fff"/>
</svg>
