<svg xmlns="http://www.w3.org/2000/svg" width="21.584" height="21" viewBox="0 0 21.584 21">
  <path id="Path_171" data-name="Path 171" d="M9.29,3H5.859A2.819,2.819,0,0,0,3,5.778,2.819,2.819,0,0,0,5.859,8.556H9.29a2.819,2.819,0,0,0,2.859-2.778A2.819,2.819,0,0,0,9.29,3Zm0,4.444H5.859a1.667,1.667,0,1,1,0-3.333H9.29a1.667,1.667,0,1,1,0,3.333Zm0,3.333H5.859A2.819,2.819,0,0,0,3,13.556v6.667A2.819,2.819,0,0,0,5.859,23H9.29a2.819,2.819,0,0,0,2.859-2.778V13.556A2.819,2.819,0,0,0,9.29,10.778ZM11,20.222A1.692,1.692,0,0,1,9.29,21.889H5.859a1.692,1.692,0,0,1-1.715-1.667V13.556a1.692,1.692,0,0,1,1.715-1.667H9.29A1.692,1.692,0,0,1,11,13.556Zm9.72-2.778H17.295a2.779,2.779,0,1,0,0,5.556h3.431a2.779,2.779,0,1,0,0-5.556Zm0,4.444H17.295a1.667,1.667,0,1,1,0-3.333h3.431a1.667,1.667,0,1,1,0,3.333ZM20.725,3H17.295a2.819,2.819,0,0,0-2.859,2.778v6.667a2.819,2.819,0,0,0,2.859,2.778h3.431a2.819,2.819,0,0,0,2.859-2.778V5.778A2.819,2.819,0,0,0,20.725,3Zm1.715,9.444a1.692,1.692,0,0,1-1.715,1.667H17.295a1.692,1.692,0,0,1-1.715-1.667V5.778a1.692,1.692,0,0,1,1.715-1.667h3.431a1.692,1.692,0,0,1,1.715,1.667Z" transform="translate(-2.5 -2.5)" fill="#fff" stroke="#fff" stroke-width="1" opacity="0.8"/>
</svg>
