<svg xmlns="http://www.w3.org/2000/svg" width="47.404" height="47.404" viewBox="0 0 47.404 47.404"><defs><style>.a{fill:#fe0000;}</style></defs><path class="a" d="M25.7,23.332a42.663,42.663,0,0,0-7.111.569v-3.84L31.509,13.59a2.37,2.37,0,0,0,0-4.219L17.288,2.261h-.166a1.9,1.9,0,0,0-.9-.261h0a2.2,2.2,0,0,0-.782.166h-.427l-.356.284h0a2.536,2.536,0,0,0-.45.664V3.28a2.37,2.37,0,0,0-.356,1.09V25.038C6.74,27.266,2,31.462,2,36.368,2,43.668,12.405,49.4,25.7,49.4s23.7-5.736,23.7-13.036S39,23.332,25.7,23.332Zm-7.111-8.58V8.21l6.542,3.271ZM25.7,44.664c-11.164,0-18.962-4.361-18.962-8.3,0-2.37,2.678-4.74,7.111-6.376v5.191a2.37,2.37,0,1,0,4.74,0V28.712a38.871,38.871,0,0,1,7.111-.64c11.164,0,18.962,4.361,18.962,8.3S36.866,44.664,25.7,44.664Z" transform="translate(-2 -2)"/></svg>