<svg xmlns="http://www.w3.org/2000/svg" xmlns:xlink="http://www.w3.org/1999/xlink" width="49.569" height="49.569" viewBox="0 0 49.569 49.569"><defs><style>.a{clip-path:url(#a);}.b{fill:#77b255;}.c{clip-path:url(#b);}.d{fill:#5c913b;}.e{fill:#292f33;}.f{fill:#ffac33;}.g{fill:#dd2e44;}</style><clipPath id="a"><path d="M0-47.5H49.569V2.069H0Z" transform="translate(0 47.5)"/></clipPath><clipPath id="b"><path d="M1.491-5.651A5.38,5.38,0,0,0,6.457-.433H42.982c2.609,0,4.867-2.609,4.867-5.218h0C47.849-11.332,41.8-20,24.719-20h0C7.12-20,1.491-11.575,1.491-5.651" transform="translate(-1.491 20)"/></clipPath></defs><g transform="translate(0 47.5)"><g transform="translate(0 -47.5)"><g class="a"><g transform="translate(1.556 28.698)"><path class="b" d="M.207.817H36.732C39.341.817,41.6-1.792,41.6-4.4c0-5.681-6.043-14.349-23.128-14.349C.87-18.75-4.759-10.325-4.759-4.4A5.38,5.38,0,0,0,.207.817" transform="translate(4.759 18.75)"/></g></g></g><g transform="translate(1.556 -18.802)"><g class="c"><g transform="translate(14.477 1.141)"><path class="d" d="M0,.415c1.468-4.892,12.718-10,18.7-9.946,6.522.059,3.424,1.033,2.12,1.033S5.436-5.074,2.554,1.285A5.189,5.189,0,0,1,0,.415" transform="translate(0 9.532)"/></g></g></g><g transform="translate(0 -47.5)"><g class="a"><g transform="translate(9.131 37.829)"><path class="e" d="M.708.136c0,1.8-3.8,3.261-8.479,3.261S-16.25,1.938-16.25.136s3.8-3.261,8.479-3.261S.708-1.665.708.136" transform="translate(16.25 3.125)"/></g><g transform="translate(14.349 6.522)"><path class="f" d="M0,0V33.916c0,.721.584,1.1,1.3,1.1s1.3-.38,1.3-1.1V0Z"/></g><g transform="translate(14.349 1.468)"><path class="g" d="M0,.156c0-2.87,2.211-4.429,4.914-3.463L17.262,1.1c2.7.965,2.7,2.545,0,3.51L4.914,9.024C2.211,9.989,0,8.431,0,5.561Z" transform="translate(0 3.593)"/></g></g></g></g></svg>