<svg xmlns="http://www.w3.org/2000/svg" width="38" height="38" viewBox="0 0 38 38">
  <g id="Group_998" data-name="Group 998" transform="translate(-1376 -7956)">
    <g id="Group_996" data-name="Group 996">
      <g id="Group_994" data-name="Group 994" transform="translate(1376 7956.065)">
        <g id="Rectangle_67" data-name="Rectangle 67" transform="translate(0 -0.065)" fill="none" stroke="#fe0000" stroke-width="1">
          <rect width="38" height="38" rx="10" stroke="none"/>
          <rect x="0.5" y="0.5" width="37" height="37" rx="9.5" fill="none"/>
        </g>
      </g>
    </g>
    <path id="Path_596" data-name="Path 596" d="M19.381,8.813a7.1,7.1,0,0,0-.76-3.451,2.44,2.44,0,0,0-1.437-.836,65.475,65.475,0,0,0-6.994-.259,65.545,65.545,0,0,0-6.968.251A2.4,2.4,0,0,0,2,5.137,4.311,4.311,0,0,0,1.082,8.02a40.347,40.347,0,0,0,0,5.414,7.979,7.979,0,0,0,.251,1.671,2.624,2.624,0,0,0,.593,1.136,2.39,2.39,0,0,0,1.245.652,37.75,37.75,0,0,0,5.431.276c2.924.042,5.49,0,8.523-.234a2.406,2.406,0,0,0,1.278-.652,2.081,2.081,0,0,0,.51-.836,8.84,8.84,0,0,0,.434-2.841C19.381,12.139,19.381,9.315,19.381,8.813ZM8.3,13.108V7.936l4.946,2.6C11.861,11.3,10.031,12.172,8.3,13.108Z" transform="translate(1385.009 7964.742)" fill="#fff"/>
  </g>
</svg>
