<svg id="instagram" xmlns="http://www.w3.org/2000/svg" width="16.362" height="16.362" viewBox="0 0 16.362 16.362">
  <path id="Path_588" data-name="Path 588" d="M11.932,0h-7.5A4.434,4.434,0,0,0,0,4.429v7.5a4.434,4.434,0,0,0,4.429,4.429h7.5a4.434,4.434,0,0,0,4.429-4.429v-7.5A4.434,4.434,0,0,0,11.932,0ZM8.18,12.655a4.474,4.474,0,1,1,4.474-4.474A4.479,4.479,0,0,1,8.18,12.655Zm4.581-7.893A1.322,1.322,0,1,1,14.083,3.44,1.323,1.323,0,0,1,12.761,4.762Zm0,0" transform="translate(0.001 0)" fill="#fff"/>
  <path id="Path_589" data-name="Path 589" d="M149.535,146.02a3.515,3.515,0,1,0,3.515,3.515A3.519,3.519,0,0,0,149.535,146.02Zm0,0" transform="translate(-141.354 -141.354)" fill="#fff"/>
  <path id="Path_590" data-name="Path 590" d="M388.355,96.3a.363.363,0,1,0,.363.363A.363.363,0,0,0,388.355,96.3Zm0,0" transform="translate(-375.593 -93.223)" fill="#fff"/>
</svg>
