<svg xmlns="http://www.w3.org/2000/svg" width="25.465" height="20.286" viewBox="0 0 25.465 20.286">
  <path id="Path_736" data-name="Path 736" d="M14.746,20.385a.374.374,0,0,0,.374-.374v-.592l.857.864a.374.374,0,1,0,.531-.528l-.863-.869h.6a.374.374,0,0,0,.374-.374v-1.5a.374.374,0,0,0-.374-.374h-1.5a.374.374,0,0,0-.374.374v3a.374.374,0,0,0,.374.375Zm.374-3h.749v.749h-.749Zm-3.37,3h1.5a.374.374,0,0,0,.374-.374v-3a.374.374,0,0,0-.374-.374h-1.5a.374.374,0,0,0-.374.374v3a.374.374,0,0,0,.374.374Zm.374-3h.749v2.247h-.749Zm5.617,3h1.5a.374.374,0,1,0,0-.749H18.116v-.749H19.24a.374.374,0,1,0,0-.749H18.116v-.749H19.24a.374.374,0,1,0,0-.749h-1.5a.374.374,0,0,0-.374.374v3A.374.374,0,0,0,17.742,20.385ZM20.6,22.656H4.868A1.874,1.874,0,0,0,3,24.528v4.494a1.874,1.874,0,0,0,1.872,1.872H20.6a1.875,1.875,0,0,0,1.872-1.872V24.528A1.875,1.875,0,0,0,20.6,22.656Zm1.124,6.366A1.125,1.125,0,0,1,20.6,30.145H4.868a1.124,1.124,0,0,1-1.123-1.123V24.528A1.124,1.124,0,0,1,4.868,23.4H20.6a1.125,1.125,0,0,1,1.123,1.123ZM1.872,32.392H23.592a.374.374,0,0,0,.374-.374V15.541a.374.374,0,0,0-.374-.374H1.872a.374.374,0,0,0-.374.374V32.017a.374.374,0,0,0,.374.374Zm.374-15.353A1.124,1.124,0,0,1,3.37,15.915H22.094a1.125,1.125,0,0,1,1.123,1.123v3a1.125,1.125,0,0,1-1.123,1.123H3.37a1.124,1.124,0,0,1-1.123-1.123Zm0,4.868h20.97v9.736H2.247ZM25.089,13.66H.374A.374.374,0,0,0,0,14.034V33.507a.374.374,0,0,0,.374.374,8.448,8.448,0,0,0,1.872,0c.657-.024,1.074,0,1.832,0,2.634.009,5.619,0,8.795,0,2.523,0,5.019-.095,7.289,0,1.158.048,2.377,0,3.429,0a5.14,5.14,0,0,0,1.5,0,.374.374,0,0,0,.374-.374V14.034a.374.374,0,0,0-.376-.374Zm-.373,19.472H.749V14.409H24.715ZM8.755,20.4h1.5a.374.374,0,1,0,0-.749H9.129V17.4h1.123a.374.374,0,1,0,0-.749h-1.5a.374.374,0,0,0-.374.374v3a.374.374,0,0,0,.374.374Zm-3-.713a.374.374,0,1,0,0,.749h1.5a.374.374,0,0,0,.374-.374v-1.5a.374.374,0,0,0-.374-.374H6.133v-.749H7.257a.374.374,0,1,0,0-.749h-1.5a.374.374,0,0,0-.374.374v1.5a.374.374,0,0,0,.374.374H6.882v.749Zm7.722,4.47h-1.5a.374.374,0,0,0-.374.374v1.5a.374.374,0,0,0,.374.374h1.5a.374.374,0,0,0,.374-.374v-1.5a.374.374,0,0,0-.374-.374Zm-.374,1.5h-.749V24.9h.749Zm.374,1.5h-1.5a.374.374,0,0,0-.374.374v1.5a.374.374,0,0,0,.374.374h1.5a.374.374,0,0,0,.374-.374v-1.5a.374.374,0,0,0-.374-.374Zm-.374,1.5h-.749V27.9h.749Z" transform="translate(0 -13.66)" fill="#fff"/>
</svg>
