<svg xmlns="http://www.w3.org/2000/svg" width="54.664" height="47.831" viewBox="0 0 54.664 47.831">
  <path id="Path_2362" data-name="Path 2362" d="M24.791,61.165H16.249V54.332A6.839,6.839,0,0,1,23.082,47.5h.854A2.556,2.556,0,0,0,26.5,44.937V39.812a2.556,2.556,0,0,0-2.562-2.562h-.854A17.078,17.078,0,0,0,6,54.332V79.956a5.126,5.126,0,0,0,5.125,5.125H24.791a5.126,5.126,0,0,0,5.125-5.125V66.29A5.126,5.126,0,0,0,24.791,61.165Zm30.748,0H47V54.332A6.839,6.839,0,0,1,53.831,47.5h.854a2.556,2.556,0,0,0,2.562-2.562V39.812a2.556,2.556,0,0,0-2.562-2.562h-.854A17.078,17.078,0,0,0,36.748,54.332V79.956a5.126,5.126,0,0,0,5.125,5.125H55.539a5.126,5.126,0,0,0,5.125-5.125V66.29A5.126,5.126,0,0,0,55.539,61.165Z" transform="translate(-6 -37.25)" fill="#fff"/>
</svg>
