<svg xmlns="http://www.w3.org/2000/svg" width="98.001" height="109.59" viewBox="0 0 98.001 109.59"><defs><style>.a{fill:#fff;}.b{fill:#fe0000;}</style></defs><g transform="translate(0 0)"><path class="a" d="M199.036,65.281a2.141,2.141,0,0,0,2.141-2.141V43.532a12.029,12.029,0,0,0-1.618-6.022,78.813,78.813,0,0,0-18.353-21.567,6.394,6.394,0,0,0-3.415-1.415,9.455,9.455,0,0,0,.077-1.187,9.238,9.238,0,0,0-2.723-6.575L171.1,2.718A9.3,9.3,0,0,0,157.654,15.56l-2.008,2.008a2.141,2.141,0,1,0,3.027,3.027l2-2,1.321,1.321a9.238,9.238,0,0,0,6.575,2.723,9.362,9.362,0,0,0,2.134-.247A53.11,53.11,0,0,1,163.7,47.3l-2.678,4.669a6.433,6.433,0,0,0,.331,6.913l-17.181,27.7h-2.7a7.943,7.943,0,1,0-13.552.886,7.552,7.552,0,0,0,3.545,14.222h4.173a7.507,7.507,0,0,0,6.419-3.572l22.809-36.767a6.409,6.409,0,0,0,7.3-2.987l2.678-4.669a65.739,65.739,0,0,0,4.371-9.217l3.775,6.207V75.769a2.133,2.133,0,0,0,.038.4l3.837,20.149h-3.019a7.929,7.929,0,0,0-7.92,7.92v3.211a2.141,2.141,0,0,0,2.141,2.141h18.6a4.518,4.518,0,0,0,4.513-4.513V82.919a2.141,2.141,0,0,0-4.281,0v13.4h-5.681l-3.952-20.751V51.234l9.632-6.372V63.14A2.141,2.141,0,0,0,199.036,65.281ZM134.42,79.258a3.661,3.661,0,0,1,.021,7.321H134.4a3.661,3.661,0,0,1,.021-7.321Zm3.992,16.6a3.253,3.253,0,0,1-2.781,1.547h-4.173a3.273,3.273,0,1,1,0-6.546h10.054Zm22.276-83.331a5.015,5.015,0,0,1,7.067-7.067Zm7.882,5.831a4.985,4.985,0,0,1-3.548-1.469L163.7,15.568l7.1-7.1,1.321,1.321a5.017,5.017,0,0,1-3.547,8.565Zm2.553,33.2-2.678,4.669a2.149,2.149,0,0,1-1.861,1.076,2.1,2.1,0,0,1-1.061-.284,2.14,2.14,0,0,1-.792-2.922l2.678-4.669a57.392,57.392,0,0,0,7.6-28.515,2.141,2.141,0,0,1,4.281,0,61.682,61.682,0,0,1-8.166,30.645ZM196.9,100.6v4.477a.232.232,0,0,1-.232.232H180.2v-1.07a3.643,3.643,0,0,1,3.639-3.639ZM185.8,47.071l-4.809-7.908a65.963,65.963,0,0,0,2.52-15.419,74.537,74.537,0,0,1,12.347,15.912c.107.185.2.375.294.567Z" transform="translate(-103.176 0.001)"/><path class="b" d="M46.517,62.6,30.106,55.052A2.141,2.141,0,0,0,27.071,57h0v40.91s0,.007,0,.01,0,.011,0,.017c0,4.013,4.033,7.278,8.99,7.278s8.99-3.265,8.99-7.278-4.033-7.278-8.99-7.278a10.545,10.545,0,0,0-4.709,1.082V73.466L46.517,66.49a2.14,2.14,0,0,0,0-3.889ZM36.061,94.937c2.509,0,4.709,1.4,4.709,3s-2.2,3-4.709,3-4.709-1.4-4.709-3S33.553,94.937,36.061,94.937ZM31.352,68.754V60.337L40.5,64.545Z" transform="translate(-27.071 -43.114)"/><path class="a" d="M467.049,329.979a2.141,2.141,0,1,0,1.513.627A2.152,2.152,0,0,0,467.049,329.979Z" transform="translate(-371.188 -259.346)"/></g></svg>