<svg xmlns="http://www.w3.org/2000/svg" width="17.245" height="17.205" viewBox="0 0 17.245 17.205">
  <g id="linkedin" transform="translate(0 0)">
    <g id="Group_2" data-name="Group 2" transform="translate(0 0)">
      <path id="Path_3" data-name="Path 3" d="M70.93,69.215a2.068,2.068,0,1,1-2.083,2.065A2.077,2.077,0,0,1,70.93,69.215Z" transform="translate(-68.847 -69.215)" fill="#fff"/>
      <path id="Path_4" data-name="Path 4" d="M77.2,186.156H74.771a.57.57,0,0,1-.57-.57V175.241a.57.57,0,0,1,.57-.57H77.2a.57.57,0,0,1,.57.57v10.345A.57.57,0,0,1,77.2,186.156Z" transform="translate(-73.911 -168.953)" fill="#fff"/>
      <path id="Path_5" data-name="Path 5" d="M192.648,173.189a3.927,3.927,0,0,0-3.927-3.927H188.1a3.492,3.492,0,0,0-3.056,1.8l-.032,0v-1.27a.237.237,0,0,0-.237-.237h-3.025a.237.237,0,0,0-.237.237V180.8a.237.237,0,0,0,.236.237h3.091a.237.237,0,0,0,.237-.237v-6.362a2.016,2.016,0,0,1,1.977-2.025,2,2,0,0,1,2.023,2V180.8a.237.237,0,0,0,.236.237h3.1a.237.237,0,0,0,.237-.237v-7.617Z" transform="translate(-175.403 -163.837)" fill="#fff"/>
    </g>
  </g>
</svg>
