<svg xmlns="http://www.w3.org/2000/svg" width="38" height="38" viewBox="0 0 38 38"><defs><style>.a,.d{fill:none;}.a{stroke:#fe0000;}.b{fill:#fff;}.c{stroke:none;}</style></defs><g transform="translate(0 0.065)"><g class="a" transform="translate(0 -0.065)"><rect class="c" width="38" height="38" rx="10"/><rect class="d" x="0.5" y="0.5" width="37" height="37" rx="9.5"/></g><g transform="translate(7 4)"><path class="b" d="M70.979,5.216a12.113,12.113,0,0,0-19.915,0,12.115,12.115,0,0,0-1.41,11.162,9.541,9.541,0,0,0,1.758,2.9l8.811,10.35a1.048,1.048,0,0,0,1.6,0l8.809-10.347a9.55,9.55,0,0,0,1.758-2.9A12.117,12.117,0,0,0,70.979,5.216ZM70.423,15.65a7.483,7.483,0,0,1-1.384,2.266l0,.006-8.013,9.411L53,17.916a7.487,7.487,0,0,1-1.386-2.273A10.021,10.021,0,0,1,52.79,6.409a10.015,10.015,0,0,1,16.464,0A10.023,10.023,0,0,1,70.423,15.65Z" transform="translate(-48.886 0)"/><g transform="translate(5.723 5.857)"><path class="b" d="M162.167,106.219a6.413,6.413,0,1,0,6.413,6.413A6.42,6.42,0,0,0,162.167,106.219Zm0,10.535a4.122,4.122,0,1,1,4.122-4.122A4.127,4.127,0,0,1,162.167,116.754Z" transform="translate(-155.754 -106.219)"/></g></g></g></svg>