<svg xmlns="http://www.w3.org/2000/svg" width="38" height="38" viewBox="0 0 38 38"><defs><style>.a,.d{fill:none;}.a{stroke:#fe0000;}.b{fill:#fff;}.c{stroke:none;}</style></defs><g transform="translate(0 0.065)"><g class="a" transform="translate(0 -0.065)"><rect class="c" width="38" height="38" rx="10"/><rect class="d" x="0.5" y="0.5" width="37" height="37" rx="9.5"/></g><g transform="translate(4 9)"><path class="b" d="M26.626,80.609H2.566A2.569,2.569,0,0,0,0,83.175V98.043a2.569,2.569,0,0,0,2.566,2.566H26.626a2.569,2.569,0,0,0,2.566-2.566V83.175A2.569,2.569,0,0,0,26.626,80.609Zm-.335,1.71-.342.285L15.614,91.211a1.591,1.591,0,0,1-2.036,0L3.243,82.6,2.9,82.319ZM1.71,83.554l8.421,7.012L1.71,96.17ZM26.626,98.9H2.566a.857.857,0,0,1-.838-.685L11.5,91.708l.981.817a3.3,3.3,0,0,0,4.225,0l.981-.817,9.775,6.505A.857.857,0,0,1,26.626,98.9Zm.855-2.728-8.421-5.6,8.421-7.012Z" transform="translate(0 -80.609)"/></g></g></svg>