<svg xmlns="http://www.w3.org/2000/svg" width="116.442" height="107.323" viewBox="0 0 116.442 107.323"><defs><style>.a{fill:#fff;}.b{fill:#fe0000;}</style></defs><g transform="translate(-1147 -1110)"><g transform="translate(1147 1110)"><path class="a" d="M96.939,65.3a2.331,2.331,0,0,0,3.292,0L115.76,49.775a2.329,2.329,0,0,0,0-3.293L97.033,27.756a26.148,26.148,0,0,0-18.611-7.709h-40.4a26.147,26.147,0,0,0-18.611,7.709L.682,46.482a2.329,2.329,0,0,0,0,3.293L16.211,65.3a2.332,2.332,0,0,0,3.293,0l6.615-6.615V82.344H24.662A16.856,16.856,0,0,0,7.825,99.181v9.952l-5.859,5.175a5.807,5.807,0,0,0,2.6,10.024,132.336,132.336,0,0,0,56.4,0,5.783,5.783,0,0,0,4.454-4.564h6.45l-.355,4.053a2.623,2.623,0,0,0,2.613,2.851h37.715a2.623,2.623,0,0,0,2.613-2.851l-3.419-39.081a2.609,2.609,0,0,0-2.613-2.394H104.73a11.762,11.762,0,0,0-14.407-11.08V58.689ZM43.1,26a1.706,1.706,0,0,0,3.285-.92,12.253,12.253,0,0,1-.337-1.621H70.4a12.3,12.3,0,0,1-20.44,7.4,1.706,1.706,0,1,0-2.293,2.526,15.708,15.708,0,0,0,26.171-9.926h2.286a17.982,17.982,0,0,1-35.8,0h2.286A15.648,15.648,0,0,0,43.1,26ZM47.38,87.447a13.436,13.436,0,0,1,6.907,11.734v9.261l-2.717.424V100.5a21.257,21.257,0,0,0-4.19-13.052Zm-11.386-5.1H29.53v-.993a1.288,1.288,0,0,1,1.287-1.287h3.89a1.288,1.288,0,0,1,1.287,1.287v.993ZM11.236,99.181a13.436,13.436,0,0,1,6.907-11.734,21.258,21.258,0,0,0-4.19,13.052v8.366l-2.717-.424Zm50.8,20.079A2.355,2.355,0,0,1,60.228,121,128.9,128.9,0,0,1,5.3,121a2.4,2.4,0,0,1-1.072-4.135l5.835-5.153,4.016.626c2.351.367,4.744.668,7.113.895a1.706,1.706,0,0,0,.326-3.4c-1.38-.132-2.767-.29-4.15-.473V100.5c0-8.13,4.667-14.743,10.4-14.743h9.986c5.737,0,10.4,6.614,10.4,14.743v8.864a118.239,118.239,0,0,1-18.711.964,1.706,1.706,0,0,0-.1,3.41,121.608,121.608,0,0,0,22.1-1.4l4.016-.626,5.835,5.153a2.365,2.365,0,0,1,.785,1.41c0,.019.005.038.008.057A2.432,2.432,0,0,1,62.033,119.261ZM92.98,74.373a8.355,8.355,0,0,1,8.336,7.972H90.324V74.807A8.3,8.3,0,0,1,92.98,74.373Zm-8.336,7.972A8.315,8.315,0,0,1,86.912,77v5.349Zm-3.414,0H77.542a2.609,2.609,0,0,0-2.613,2.394L74.1,94.245a1.706,1.706,0,0,0,3.4.3l.769-8.786H107.7l3.281,37.5H74.983l.44-5.026c0-.015,0-.029,0-.044l1.342-15.336a1.706,1.706,0,0,0-3.4-.3l-1.207,13.8H65.048a5.815,5.815,0,0,0-1.49-2.048L57.7,109.133V99.181A16.856,16.856,0,0,0,40.862,82.345H39.406v-.993a4.7,4.7,0,0,0-4.7-4.7h-3.89a4.686,4.686,0,0,0-1.287.179V37.3a1.706,1.706,0,1,0-3.411,0V54.013a2.343,2.343,0,0,0-.564.416l-7.7,7.7-14-14L21.821,30.168A22.743,22.743,0,0,1,36.9,23.485a21.394,21.394,0,0,0,42.646,0,22.74,22.74,0,0,1,15.077,6.683l17.961,17.961-14,14-7.7-7.7a2.336,2.336,0,0,0-.563-.415V37.3a1.706,1.706,0,0,0-3.411,0v35.35a11.764,11.764,0,0,0-5.682,9.693Z" transform="translate(0 -20.047)"/></g><path class="b" d="M106.165,338.277l2.936-2.133,2.936,2.133A2.838,2.838,0,0,0,116.4,335.1l-1.121-3.452,2.936-2.133a2.838,2.838,0,0,0-1.668-5.134h-3.629l-1.121-3.451h0a2.838,2.838,0,0,0-5.4,0l-1.121,3.451h-3.629a2.838,2.838,0,0,0-1.668,5.134l2.936,2.133L101.8,335.1a2.838,2.838,0,0,0,4.368,3.173Zm2.391-16.29v0Zm-2.462,5.809a2.286,2.286,0,0,0,2.179-1.584l.828-2.548.828,2.548a2.286,2.286,0,0,0,2.179,1.584h2.679l-2.167,1.575a2.286,2.286,0,0,0-.832,2.562l.828,2.548-2.167-1.574a2.286,2.286,0,0,0-2.695,0l-2.167,1.575.828-2.548a2.286,2.286,0,0,0-.833-2.562l-2.167-1.575Z" transform="translate(1070.661 859.011)"/><path class="b" d="M213.619,156.289h-6.961l-2.151-6.621a3.613,3.613,0,0,0-6.873,0l-2.151,6.621h-6.961a3.613,3.613,0,0,0-2.124,6.537l5.632,4.092-2.151,6.621a3.613,3.613,0,0,0,5.561,4.04l5.632-4.092,5.632,4.092a3.613,3.613,0,0,0,5.561-4.04l-2.151-6.621,5.632-4.092a3.614,3.614,0,0,0-2.124-6.537Zm.119,3.777-6.054,4.4a2.686,2.686,0,0,0-.978,3.01l2.313,7.117a.2.2,0,0,1-.311.226l-6.054-4.4a2.685,2.685,0,0,0-3.166,0l-6.055,4.4a.2.2,0,0,1-.311-.226l2.312-7.117a2.686,2.686,0,0,0-.978-3.011l-6.054-4.4a.2.2,0,0,1,.119-.365H196a2.686,2.686,0,0,0,2.561-1.861l2.313-7.117a.2.2,0,0,1,.385,0l2.313,7.118a2.686,2.686,0,0,0,2.561,1.861h7.484a.2.2,0,0,1,.118.366Z" transform="translate(1004.151 991.74)"/><path class="b" d="M360.473,350.86l3.39,2.463-1.294,3.985a2.969,2.969,0,0,0,4.568,3.32l3.39-2.463,3.39,2.463a2.969,2.969,0,0,0,4.569-3.319l-1.294-3.985,3.389-2.463a2.969,2.969,0,0,0-1.745-5.371h-4.19L373.35,341.5h0a2.969,2.969,0,0,0-5.647,0l-1.295,3.985h-4.19a2.969,2.969,0,0,0-1.745,5.37Zm6.7-1.959a2.352,2.352,0,0,0,2.244-1.63l1.11-3.416,1.11,3.417a2.354,2.354,0,0,0,2.244,1.63h3.592l-2.907,2.112a2.354,2.354,0,0,0-.856,2.637l1.11,3.416-2.906-2.111a2.354,2.354,0,0,0-2.773,0l-2.906,2.111,1.11-3.416a2.354,2.354,0,0,0-.857-2.638L363.58,348.9Z" transform="translate(869.454 843.188)"/></g></svg>