<svg xmlns="http://www.w3.org/2000/svg" width="38" height="38" viewBox="0 0 38 38"><defs><style>.a,.d{fill:none;}.a{stroke:#fe0000;}.b{fill:#fff;}.c{stroke:none;}</style></defs><g transform="translate(0 0.065)"><g class="a" transform="translate(0 -0.065)"><rect class="c" width="38" height="38" rx="10"/><rect class="d" x="0.5" y="0.5" width="37" height="37" rx="9.5"/></g><g transform="translate(7 7)"><path class="b" d="M17.968,25a6.965,6.965,0,0,1-2.39-.427,25.481,25.481,0,0,1-9.253-5.9,25.48,25.48,0,0,1-5.9-9.253,6.915,6.915,0,0,1-.353-3.4A7.091,7.091,0,0,1,3.719.833,6.961,6.961,0,0,1,7.052,0a.781.781,0,0,1,.764.618L9.042,6.34a.781.781,0,0,1-.211.716l-2.1,2.1a20.564,20.564,0,0,0,9.114,9.114l2.1-2.1a.782.782,0,0,1,.716-.211l5.722,1.226a.781.781,0,0,1,.618.764,6.961,6.961,0,0,1-.833,3.333,7.091,7.091,0,0,1-5.191,3.644A6.948,6.948,0,0,1,17.968,25ZM6.428,1.6A5.474,5.474,0,0,0,1.9,8.889,23.7,23.7,0,0,0,16.112,23.1,5.474,5.474,0,0,0,23.4,18.573l-4.655-1L16.56,19.763a.781.781,0,0,1-.885.155A22.121,22.121,0,0,1,5.082,9.325a.781.781,0,0,1,.155-.885L7.425,6.252Z" transform="translate(0 0)"/></g></g></svg>