<svg xmlns="http://www.w3.org/2000/svg" width="20.678" height="22.176" viewBox="0 0 20.678 22.176">
  <g id="Layer_2" data-name="Layer 2" transform="translate(-4.997 -3.083)">
    <path id="Path_803" data-name="Path 803" d="M27.073,8.179a.381.381,0,0,0,.031-.15V6.115a.383.383,0,0,0-.383-.383h-.435a4.592,4.592,0,0,0-8.321,0h-.434a.383.383,0,0,0-.383.383V8.029a.381.381,0,0,0,.03.148,1.913,1.913,0,0,0,.371,3.644,4.59,4.59,0,0,0,9.155,0,1.911,1.911,0,0,0,.37-3.642Zm-4.947-4.33a3.82,3.82,0,0,1,3.294,1.883H18.836A3.832,3.832,0,0,1,22.126,3.849Zm-4.595,7.173a1.142,1.142,0,0,1,0-2.156ZM22.126,15.3A3.833,3.833,0,0,1,18.3,11.475V8.412h7.658v3.063A3.833,3.833,0,0,1,22.126,15.3Zm4.595-4.282V8.866a1.142,1.142,0,0,1,0,2.156Zm-4.595,9.26a3.3,3.3,0,0,0,2.792-1.275,3.209,3.209,0,0,0,.47-2.486l-.13-.026-.867-.168a5.294,5.294,0,0,1-4.531,0l-1,.192a3.206,3.206,0,0,0,.486,2.511A3.31,3.31,0,0,0,22.126,20.282Z" transform="translate(-6.79)" fill="#fff"/>
    <path id="Path_804" data-name="Path 804" d="M24.737,42.013h0a3.569,3.569,0,0,0-1.109-1.582,4.091,4.091,0,0,0-2.249-.859l.078,7.439H16.815l1.137-1.7a.382.382,0,0,0-.318-.593H15.72v.766h1.2L15.9,47.012h-.946V45.1a.384.384,0,0,0-.383-.383H12.656a.384.384,0,0,0-.383.383v1.532h.766V45.48h1.149V46.9l-.069.111h-4.9l.078-7.435c-.547.108-.954.191-1.028.212l0,.01A3.462,3.462,0,0,0,5.8,42.539L5,47.329a.387.387,0,0,0,.379.448H25.292a.383.383,0,0,0,.378-.446C24.824,42.358,24.894,42.478,24.737,42.013Z" transform="translate(0 -22.517)" fill="#fff"/>
  </g>
</svg>
