<svg xmlns="http://www.w3.org/2000/svg" width="57.566" height="109.234" viewBox="0 0 57.566 109.234"><defs><style>.a{fill:#fff;}.b{fill:#fe0000;}</style></defs><path class="a" d="M170.5,104.05a6.809,6.809,0,0,1-6.6,5.183H141.658a6.794,6.794,0,0,1-6.592-5.183h-4.5a6.133,6.133,0,0,1-6.115-6.121V83.2a1.6,1.6,0,1,1,3.2,0V97.929a2.932,2.932,0,0,0,2.915,2.921h4.307V58.29h-4.307a2.932,2.932,0,0,0-2.915,2.921V75.944a1.6,1.6,0,1,1-3.2,0V61.211a6.133,6.133,0,0,1,6.115-6.121h4.5a6.794,6.794,0,0,1,6.592-5.183h2.232l-1.748-6.52a1.6,1.6,0,0,1,3.091-.822l1.966,7.343h3.133L144.4,27.789l-2.921.786,1.869,6.986a1.6,1.6,0,1,1-3.084.823L135.4,18.227H125.086A3.852,3.852,0,0,1,122.2,16.9a4.482,4.482,0,0,1-1.113-2.97,9.315,9.315,0,0,1,3.974-7.391,15.616,15.616,0,0,1,18.035,0,9.317,9.317,0,0,1,3.968,7.391,4.494,4.494,0,0,1-1.107,2.97,4.093,4.093,0,0,1-.95.792l8.631,32.219h2.437V41.839a1.6,1.6,0,0,1,3.2,0v8.068H162.3V26.525h-3.024v8.068a1.6,1.6,0,0,1-3.2,0V16.927a4.123,4.123,0,0,1-1.125-.52,4.484,4.484,0,0,1-1.838-2.589,9.3,9.3,0,0,1,1.923-8.159A15.614,15.614,0,0,1,172.455.989,9.354,9.354,0,0,1,178.207,7.1a4.519,4.519,0,0,1-.3,3.157,3.862,3.862,0,0,1-2.449,2.038L165.5,14.961V50.095a6.822,6.822,0,0,1,5.189,6.6v7.56H172.9A5.762,5.762,0,0,1,178.654,70V98.3a5.761,5.761,0,0,1-5.752,5.752Zm-26.2-2.292a1.6,1.6,0,0,1-3.2,0V99.55a1.6,1.6,0,1,1,3.2,0Zm0-8.437a1.6,1.6,0,1,1-3.2,0V91.113a1.6,1.6,0,0,1,3.2,0Zm0-8.431a1.6,1.6,0,1,1-3.2,0V82.682a1.6,1.6,0,1,1,3.2,0Zm0-8.431a1.6,1.6,0,1,1-3.2,0V74.251a1.6,1.6,0,1,1,3.2,0Zm0-8.431a1.6,1.6,0,0,1-3.2,0V65.82a1.6,1.6,0,1,1,3.2,0Zm22.584,5.4a1.6,1.6,0,1,1,0-3.2h4.415a1.6,1.6,0,1,1,0,3.2ZM136.4,9.488a1.6,1.6,0,1,1,0,3.2h-4.935a1.6,1.6,0,0,1,0-3.2Zm26.691.375a1.6,1.6,0,1,1-.829-3.085l4.681-1.252a1.6,1.6,0,1,1,.913,3.06ZM140.654,25.485l2.927-.78-2.056-7.657a1.606,1.606,0,0,1,1.131-1.96c.369-.1.617.031.913-.308a1.285,1.285,0,0,0,.309-.853,6.185,6.185,0,0,0-2.71-4.851,12.493,12.493,0,0,0-14.183,0,6.21,6.21,0,0,0-2.7,4.851,1.283,1.283,0,0,0,.3.853.674.674,0,0,0,.5.26h11.54a1.6,1.6,0,0,1,1.548,1.186Zm18.622-2.159H162.3V13.739a1.606,1.606,0,0,1,1.186-1.548l11.062-2.964c.659-.175.671-.829.55-1.373a6.217,6.217,0,0,0-3.84-3.913,11.767,11.767,0,0,0-7.348-.321c-2.583.835-4.633,1.772-6.351,3.986A6.211,6.211,0,0,0,156.2,13a1.27,1.27,0,0,0,.514.75c.381.254.562.061.955.061a1.6,1.6,0,0,1,1.6,1.6ZM175.455,79.41H162.717V98.3a2.561,2.561,0,0,0,2.552,2.552H172.9a2.561,2.561,0,0,0,2.553-2.552ZM162.717,76.2h12.737V70a2.562,2.562,0,0,0-2.553-2.546H165.27A2.562,2.562,0,0,0,162.717,70Zm4.766-11.951v-3.06H156.4a1.6,1.6,0,1,1,0-3.2h11.08v-1.3a3.593,3.593,0,0,0-3.586-3.587H141.658a3.6,3.6,0,0,0-3.587,3.587v1.3h11.086a1.6,1.6,0,0,1,0,3.2H138.071v41.254a3.6,3.6,0,0,0,3.587,3.587H163.9a3.6,3.6,0,0,0,2.534-1.052,3.683,3.683,0,0,0,.678-.931H165.27a5.761,5.761,0,0,1-5.752-5.752V70a5.761,5.761,0,0,1,5.752-5.746h2.213Z" transform="translate(-121.088 0.001)"/><rect class="b" width="9" height="4" rx="2" transform="translate(43.709 69.812)"/><rect class="b" width="8" height="3" rx="1.5" transform="translate(8.709 9.812)"/><rect class="b" width="8.613" height="3.915" rx="1.958" transform="translate(39.344 6.744) rotate(-16)"/></svg>