<svg xmlns="http://www.w3.org/2000/svg" width="54.664" height="47.831" viewBox="0 0 54.664 47.831">
  <path id="Path_2361" data-name="Path 2361" d="M41.873,61.165h8.541V68a6.839,6.839,0,0,1-6.833,6.833h-.854a2.556,2.556,0,0,0-2.562,2.562v5.125a2.556,2.556,0,0,0,2.562,2.562h.854A17.078,17.078,0,0,0,60.664,68V42.375a5.126,5.126,0,0,0-5.125-5.125H41.873a5.126,5.126,0,0,0-5.125,5.125V56.041A5.126,5.126,0,0,0,41.873,61.165Zm-30.748,0h8.541V68a6.839,6.839,0,0,1-6.833,6.833h-.854a2.556,2.556,0,0,0-2.562,2.562v5.125a2.556,2.556,0,0,0,2.562,2.562h.854A17.078,17.078,0,0,0,29.915,68V42.375a5.126,5.126,0,0,0-5.125-5.125H11.125A5.126,5.126,0,0,0,6,42.375V56.041A5.126,5.126,0,0,0,11.125,61.165Z" transform="translate(-6 -37.25)" fill="#fff"/>
</svg>
