<svg xmlns="http://www.w3.org/2000/svg" width="1920" height="295" viewBox="0 0 1920 295"><defs><style>.a,.d{fill:#fff;}.a{opacity:0.1;}.b{opacity:0.5;}.c{opacity:0.3;}</style></defs><g transform="translate(0 -4761)"><g transform="translate(0 -2258)"><g transform="translate(0 520)"><rect class="a" width="1920" height="295" transform="translate(0 6499)"/></g></g><g class="b" transform="translate(65.321 -2292)"><g class="c" transform="translate(1762 7081)"><circle class="d" cx="3" cy="3" r="3" transform="translate(86.679 0)"/><ellipse class="d" cx="3.5" cy="4" rx="3.5" ry="4" transform="translate(73.679 0)"/><circle class="d" cx="3.5" cy="3.5" r="3.5" transform="translate(58.679 0)"/><circle class="d" cx="3" cy="3" r="3" transform="translate(43.679 0)"/><circle class="d" cx="3" cy="3" r="3" transform="translate(29.679 0)"/><circle class="d" cx="3" cy="3" r="3" transform="translate(15.679 0)"/><circle class="d" cx="3.5" cy="3.5" r="3.5" transform="translate(-0.321 0)"/><circle class="d" cx="3" cy="3" r="3" transform="translate(86.679 13)"/><ellipse class="d" cx="3.5" cy="4" rx="3.5" ry="4" transform="translate(73.679 13)"/><circle class="d" cx="3.5" cy="3.5" r="3.5" transform="translate(58.679 13)"/><circle class="d" cx="3" cy="3" r="3" transform="translate(43.679 13)"/><circle class="d" cx="3" cy="3" r="3" transform="translate(29.679 13)"/><circle class="d" cx="3" cy="3" r="3" transform="translate(15.679 13)"/><circle class="d" cx="3.5" cy="3.5" r="3.5" transform="translate(-0.321 13)"/><circle class="d" cx="3" cy="3" r="3" transform="translate(86.679 29)"/><ellipse class="d" cx="3.5" cy="4" rx="3.5" ry="4" transform="translate(73.679 29)"/><circle class="d" cx="3.5" cy="3.5" r="3.5" transform="translate(58.679 29)"/><circle class="d" cx="3" cy="3" r="3" transform="translate(43.679 29)"/><circle class="d" cx="3" cy="3" r="3" transform="translate(29.679 29)"/><circle class="d" cx="3" cy="3" r="3" transform="translate(15.679 29)"/><circle class="d" cx="3.5" cy="3.5" r="3.5" transform="translate(-0.321 29)"/><circle class="d" cx="3" cy="3" r="3" transform="translate(86.679 43)"/><ellipse class="d" cx="3.5" cy="4" rx="3.5" ry="4" transform="translate(73.679 43)"/><circle class="d" cx="3.5" cy="3.5" r="3.5" transform="translate(58.679 43)"/><circle class="d" cx="3" cy="3" r="3" transform="translate(43.679 43)"/><circle class="d" cx="3" cy="3" r="3" transform="translate(29.679 43)"/><circle class="d" cx="3" cy="3" r="3" transform="translate(15.679 43)"/><circle class="d" cx="3.5" cy="3.5" r="3.5" transform="translate(-0.321 43)"/><circle class="d" cx="3" cy="3" r="3" transform="translate(86.679 58)"/><ellipse class="d" cx="3.5" cy="4" rx="3.5" ry="4" transform="translate(73.679 58)"/><circle class="d" cx="3.5" cy="3.5" r="3.5" transform="translate(58.679 58)"/><circle class="d" cx="3" cy="3" r="3" transform="translate(43.679 58)"/><circle class="d" cx="3" cy="3" r="3" transform="translate(29.679 58)"/><circle class="d" cx="3" cy="3" r="3" transform="translate(15.679 58)"/><circle class="d" cx="3.5" cy="3.5" r="3.5" transform="translate(-0.321 58)"/><circle class="d" cx="3" cy="3" r="3" transform="translate(86.679 72)"/><ellipse class="d" cx="3.5" cy="4" rx="3.5" ry="4" transform="translate(73.679 72)"/><circle class="d" cx="3.5" cy="3.5" r="3.5" transform="translate(58.679 72)"/><circle class="d" cx="3" cy="3" r="3" transform="translate(43.679 72)"/><circle class="d" cx="3" cy="3" r="3" transform="translate(29.679 72)"/><circle class="d" cx="3" cy="3" r="3" transform="translate(15.679 72)"/><circle class="d" cx="3.5" cy="3.5" r="3.5" transform="translate(-0.321 72)"/><circle class="d" cx="3" cy="3" r="3" transform="translate(86.679 86)"/><ellipse class="d" cx="3.5" cy="4" rx="3.5" ry="4" transform="translate(73.679 86)"/><circle class="d" cx="3.5" cy="3.5" r="3.5" transform="translate(58.679 86)"/><circle class="d" cx="3" cy="3" r="3" transform="translate(43.679 86)"/><circle class="d" cx="3" cy="3" r="3" transform="translate(29.679 86)"/><circle class="d" cx="3" cy="3" r="3" transform="translate(15.679 86)"/><circle class="d" cx="3.5" cy="3.5" r="3.5" transform="translate(-0.321 86)"/><circle class="d" cx="3" cy="3" r="3" transform="translate(86.679 101)"/><ellipse class="d" cx="3.5" cy="4" rx="3.5" ry="4" transform="translate(73.679 101)"/><circle class="d" cx="3.5" cy="3.5" r="3.5" transform="translate(58.679 101)"/><circle class="d" cx="3" cy="3" r="3" transform="translate(43.679 101)"/><circle class="d" cx="3" cy="3" r="3" transform="translate(29.679 101)"/><circle class="d" cx="3" cy="3" r="3" transform="translate(15.679 101)"/><circle class="d" cx="3.5" cy="3.5" r="3.5" transform="translate(-0.321 101)"/></g></g><g class="b" transform="translate(-1761.679 -2148)"><g class="c" transform="translate(1762 7081)"><circle class="d" cx="3" cy="3" r="3" transform="translate(86.679 0)"/><ellipse class="d" cx="3.5" cy="4" rx="3.5" ry="4" transform="translate(73.679 0)"/><circle class="d" cx="3.5" cy="3.5" r="3.5" transform="translate(58.679 0)"/><circle class="d" cx="3" cy="3" r="3" transform="translate(43.679 0)"/><circle class="d" cx="3" cy="3" r="3" transform="translate(29.679 0)"/><circle class="d" cx="3" cy="3" r="3" transform="translate(15.679 0)"/><circle class="d" cx="3.5" cy="3.5" r="3.5" transform="translate(-0.321 0)"/><circle class="d" cx="3" cy="3" r="3" transform="translate(86.679 13)"/><ellipse class="d" cx="3.5" cy="4" rx="3.5" ry="4" transform="translate(73.679 13)"/><circle class="d" cx="3.5" cy="3.5" r="3.5" transform="translate(58.679 13)"/><circle class="d" cx="3" cy="3" r="3" transform="translate(43.679 13)"/><circle class="d" cx="3" cy="3" r="3" transform="translate(29.679 13)"/><circle class="d" cx="3" cy="3" r="3" transform="translate(15.679 13)"/><circle class="d" cx="3.5" cy="3.5" r="3.5" transform="translate(-0.321 13)"/><circle class="d" cx="3" cy="3" r="3" transform="translate(86.679 29)"/><ellipse class="d" cx="3.5" cy="4" rx="3.5" ry="4" transform="translate(73.679 29)"/><circle class="d" cx="3.5" cy="3.5" r="3.5" transform="translate(58.679 29)"/><circle class="d" cx="3" cy="3" r="3" transform="translate(43.679 29)"/><circle class="d" cx="3" cy="3" r="3" transform="translate(29.679 29)"/><circle class="d" cx="3" cy="3" r="3" transform="translate(15.679 29)"/><circle class="d" cx="3.5" cy="3.5" r="3.5" transform="translate(-0.321 29)"/><circle class="d" cx="3" cy="3" r="3" transform="translate(86.679 43)"/><ellipse class="d" cx="3.5" cy="4" rx="3.5" ry="4" transform="translate(73.679 43)"/><circle class="d" cx="3.5" cy="3.5" r="3.5" transform="translate(58.679 43)"/><circle class="d" cx="3" cy="3" r="3" transform="translate(43.679 43)"/><circle class="d" cx="3" cy="3" r="3" transform="translate(29.679 43)"/><circle class="d" cx="3" cy="3" r="3" transform="translate(15.679 43)"/><circle class="d" cx="3.5" cy="3.5" r="3.5" transform="translate(-0.321 43)"/><circle class="d" cx="3" cy="3" r="3" transform="translate(86.679 58)"/><ellipse class="d" cx="3.5" cy="4" rx="3.5" ry="4" transform="translate(73.679 58)"/><circle class="d" cx="3.5" cy="3.5" r="3.5" transform="translate(58.679 58)"/><circle class="d" cx="3" cy="3" r="3" transform="translate(43.679 58)"/><circle class="d" cx="3" cy="3" r="3" transform="translate(29.679 58)"/><circle class="d" cx="3" cy="3" r="3" transform="translate(15.679 58)"/><circle class="d" cx="3.5" cy="3.5" r="3.5" transform="translate(-0.321 58)"/><circle class="d" cx="3" cy="3" r="3" transform="translate(86.679 72)"/><ellipse class="d" cx="3.5" cy="4" rx="3.5" ry="4" transform="translate(73.679 72)"/><circle class="d" cx="3.5" cy="3.5" r="3.5" transform="translate(58.679 72)"/><circle class="d" cx="3" cy="3" r="3" transform="translate(43.679 72)"/><circle class="d" cx="3" cy="3" r="3" transform="translate(29.679 72)"/><circle class="d" cx="3" cy="3" r="3" transform="translate(15.679 72)"/><circle class="d" cx="3.5" cy="3.5" r="3.5" transform="translate(-0.321 72)"/><circle class="d" cx="3" cy="3" r="3" transform="translate(86.679 86)"/><ellipse class="d" cx="3.5" cy="4" rx="3.5" ry="4" transform="translate(73.679 86)"/><circle class="d" cx="3.5" cy="3.5" r="3.5" transform="translate(58.679 86)"/><circle class="d" cx="3" cy="3" r="3" transform="translate(43.679 86)"/><circle class="d" cx="3" cy="3" r="3" transform="translate(29.679 86)"/><circle class="d" cx="3" cy="3" r="3" transform="translate(15.679 86)"/><circle class="d" cx="3.5" cy="3.5" r="3.5" transform="translate(-0.321 86)"/><circle class="d" cx="3" cy="3" r="3" transform="translate(86.679 101)"/><ellipse class="d" cx="3.5" cy="4" rx="3.5" ry="4" transform="translate(73.679 101)"/><circle class="d" cx="3.5" cy="3.5" r="3.5" transform="translate(58.679 101)"/><circle class="d" cx="3" cy="3" r="3" transform="translate(43.679 101)"/><circle class="d" cx="3" cy="3" r="3" transform="translate(29.679 101)"/><circle class="d" cx="3" cy="3" r="3" transform="translate(15.679 101)"/><circle class="d" cx="3.5" cy="3.5" r="3.5" transform="translate(-0.321 101)"/></g></g></g></svg>