<svg xmlns="http://www.w3.org/2000/svg" width="1977" height="285" viewBox="0 0 1977 285"><defs><style>.a{opacity:0.15;}.b,.d{fill:#fff;}.b{font-size:204px;font-family:Poppins-SemiBold, Poppins;font-weight:600;}.c{opacity:0.3;}</style></defs><g transform="translate(9 -6977)"><g class="a" transform="translate(-610 4253.458)"><text class="b" transform="translate(601 2937.542)"><tspan x="0" y="0">Become a sponsor.</tspan></text></g><g class="c" transform="translate(1762.275 7080.822)"><circle class="d" cx="4" cy="4" r="4" transform="translate(149.725 0.178)"/><ellipse class="d" cx="4.5" cy="4" rx="4.5" ry="4" transform="translate(132.725 0.178)"/><circle class="d" cx="4" cy="4" r="4" transform="translate(116.725 0.178)"/><circle class="d" cx="3.5" cy="3.5" r="3.5" transform="translate(98.725 0.178)"/><ellipse class="d" cx="4.5" cy="4" rx="4.5" ry="4" transform="translate(83.725 0.178)"/><circle class="d" cx="4" cy="4" r="4" transform="translate(66.725 0.178)"/><circle class="d" cx="3.5" cy="3.5" r="3.5" transform="translate(49.725 0.178)"/><circle class="d" cx="3.5" cy="3.5" r="3.5" transform="translate(33.725 0.178)"/><circle class="d" cx="3.5" cy="3.5" r="3.5" transform="translate(17.725 0.178)"/><circle class="d" cx="4" cy="4" r="4" transform="translate(-0.275 0.178)"/><circle class="d" cx="4" cy="4" r="4" transform="translate(149.725 15.178)"/><ellipse class="d" cx="4.5" cy="4" rx="4.5" ry="4" transform="translate(132.725 15.178)"/><circle class="d" cx="4" cy="4" r="4" transform="translate(116.725 15.178)"/><circle class="d" cx="3.5" cy="3.5" r="3.5" transform="translate(98.725 15.178)"/><ellipse class="d" cx="4.5" cy="4" rx="4.5" ry="4" transform="translate(83.725 15.178)"/><circle class="d" cx="4" cy="4" r="4" transform="translate(66.725 15.178)"/><circle class="d" cx="3.5" cy="3.5" r="3.5" transform="translate(49.725 15.178)"/><circle class="d" cx="3.5" cy="3.5" r="3.5" transform="translate(33.725 15.178)"/><circle class="d" cx="3.5" cy="3.5" r="3.5" transform="translate(17.725 15.178)"/><circle class="d" cx="4" cy="4" r="4" transform="translate(-0.275 15.178)"/><circle class="d" cx="4" cy="4" r="4" transform="translate(149.725 33.177)"/><ellipse class="d" cx="4.5" cy="4" rx="4.5" ry="4" transform="translate(132.725 33.177)"/><circle class="d" cx="4" cy="4" r="4" transform="translate(116.725 33.177)"/><circle class="d" cx="3.5" cy="3.5" r="3.5" transform="translate(98.725 33.177)"/><ellipse class="d" cx="4.5" cy="4" rx="4.5" ry="4" transform="translate(83.725 33.177)"/><circle class="d" cx="4" cy="4" r="4" transform="translate(66.725 33.177)"/><circle class="d" cx="3.5" cy="3.5" r="3.5" transform="translate(49.725 33.177)"/><circle class="d" cx="3.5" cy="3.5" r="3.5" transform="translate(33.725 33.177)"/><circle class="d" cx="3.5" cy="3.5" r="3.5" transform="translate(17.725 33.177)"/><circle class="d" cx="4" cy="4" r="4" transform="translate(-0.275 33.177)"/><circle class="d" cx="4" cy="4" r="4" transform="translate(149.725 49.177)"/><ellipse class="d" cx="4.5" cy="4" rx="4.5" ry="4" transform="translate(132.725 49.177)"/><circle class="d" cx="4" cy="4" r="4" transform="translate(116.725 49.177)"/><circle class="d" cx="3.5" cy="3.5" r="3.5" transform="translate(98.725 49.177)"/><ellipse class="d" cx="4.5" cy="4" rx="4.5" ry="4" transform="translate(83.725 49.177)"/><circle class="d" cx="4" cy="4" r="4" transform="translate(66.725 49.177)"/><circle class="d" cx="3.5" cy="3.5" r="3.5" transform="translate(49.725 49.177)"/><circle class="d" cx="3.5" cy="3.5" r="3.5" transform="translate(33.725 49.177)"/><circle class="d" cx="3.5" cy="3.5" r="3.5" transform="translate(17.725 49.177)"/><circle class="d" cx="4" cy="4" r="4" transform="translate(-0.275 49.177)"/><circle class="d" cx="4" cy="4" r="4" transform="translate(149.725 67.177)"/><ellipse class="d" cx="4.5" cy="4" rx="4.5" ry="4" transform="translate(132.725 67.177)"/><circle class="d" cx="4" cy="4" r="4" transform="translate(116.725 67.177)"/><circle class="d" cx="3.5" cy="3.5" r="3.5" transform="translate(98.725 67.177)"/><ellipse class="d" cx="4.5" cy="4" rx="4.5" ry="4" transform="translate(83.725 67.177)"/><circle class="d" cx="4" cy="4" r="4" transform="translate(66.725 67.177)"/><circle class="d" cx="3.5" cy="3.5" r="3.5" transform="translate(49.725 67.177)"/><circle class="d" cx="3.5" cy="3.5" r="3.5" transform="translate(33.725 67.177)"/><circle class="d" cx="3.5" cy="3.5" r="3.5" transform="translate(17.725 67.177)"/><circle class="d" cx="4" cy="4" r="4" transform="translate(-0.275 67.177)"/><circle class="d" cx="4" cy="4" r="4" transform="translate(149.725 83.177)"/><ellipse class="d" cx="4.5" cy="4" rx="4.5" ry="4" transform="translate(93.725 67.177)"/><circle class="d" cx="4" cy="4" r="4" transform="translate(116.725 83.177)"/><circle class="d" cx="3.5" cy="3.5" r="3.5" transform="translate(98.725 83.177)"/><ellipse class="d" cx="4.5" cy="4" rx="4.5" ry="4" transform="translate(83.725 83.177)"/><circle class="d" cx="4" cy="4" r="4" transform="translate(66.725 83.177)"/><circle class="d" cx="3.5" cy="3.5" r="3.5" transform="translate(49.725 83.177)"/><circle class="d" cx="3.5" cy="3.5" r="3.5" transform="translate(33.725 83.177)"/><circle class="d" cx="3.5" cy="3.5" r="3.5" transform="translate(17.725 83.177)"/><circle class="d" cx="4" cy="4" r="4" transform="translate(-0.275 83.177)"/><ellipse class="d" cx="4" cy="4.5" rx="4" ry="4.5" transform="translate(149.725 99.177)"/><circle class="d" cx="4.5" cy="4.5" r="4.5" transform="translate(132.725 99.177)"/><ellipse class="d" cx="4" cy="4.5" rx="4" ry="4.5" transform="translate(116.725 99.177)"/><circle class="d" cx="3.5" cy="3.5" r="3.5" transform="translate(98.725 99.177)"/><circle class="d" cx="4.5" cy="4.5" r="4.5" transform="translate(83.725 99.177)"/><ellipse class="d" cx="4" cy="4.5" rx="4" ry="4.5" transform="translate(66.725 99.177)"/><circle class="d" cx="3.5" cy="3.5" r="3.5" transform="translate(49.725 99.177)"/><circle class="d" cx="3.5" cy="3.5" r="3.5" transform="translate(33.725 99.177)"/><circle class="d" cx="3.5" cy="3.5" r="3.5" transform="translate(17.725 99.177)"/><ellipse class="d" cx="4" cy="4.5" rx="4" ry="4.5" transform="translate(-0.275 99.177)"/><circle class="d" cx="4" cy="4" r="4" transform="translate(149.725 116.177)"/><ellipse class="d" cx="4.5" cy="4" rx="4.5" ry="4" transform="translate(132.725 116.177)"/><circle class="d" cx="4" cy="4" r="4" transform="translate(116.725 116.177)"/><circle class="d" cx="3.5" cy="3.5" r="3.5" transform="translate(98.725 116.177)"/><ellipse class="d" cx="4.5" cy="4" rx="4.5" ry="4" transform="translate(83.725 116.177)"/><circle class="d" cx="4" cy="4" r="4" transform="translate(66.725 116.177)"/><circle class="d" cx="3.5" cy="3.5" r="3.5" transform="translate(49.725 116.177)"/><circle class="d" cx="3.5" cy="3.5" r="3.5" transform="translate(33.725 116.177)"/><circle class="d" cx="3.5" cy="3.5" r="3.5" transform="translate(17.725 116.177)"/><circle class="d" cx="4" cy="4" r="4" transform="translate(-0.275 116.177)"/></g></g></svg>