<svg id="Group_1127" data-name="Group 1127" xmlns="http://www.w3.org/2000/svg" xmlns:xlink="http://www.w3.org/1999/xlink" width="1110.823" height="622.698" viewBox="0 0 1110.823 622.698">
  <defs>
    <clipPath id="clip-path">
      <rect id="Rectangle_112" data-name="Rectangle 112" width="1110.823" height="622.698" fill="none"/>
    </clipPath>
  </defs>
  <g id="Group_1126" data-name="Group 1126" clip-path="url(#clip-path)">
    <path id="Path_2363" data-name="Path 2363" d="M97.688,484.236H1110.823V211.894s-156.712-72.922-388.285-72.922-282.8,80.965-252.152,113.421C571.634,359.622,85.71,281.765,17.835,351.636s79.853,132.6,79.853,132.6" transform="translate(0 138.461)" fill="#069467"/>
    <path id="Path_2364" data-name="Path 2364" d="M350.559,399.714h487.4V227.082S614.7,211.83,503.35,247.151,238.457,307.685,281.185,353.7s69.374,46.013,69.374,46.013" transform="translate(272.859 222.984)" fill="#7fa99b"/>
    <path id="Path_2365" data-name="Path 2365" d="M536.829,283.791c0,5.208-8.333,9.433-18.606,9.433s-18.61-4.224-18.61-9.433,8.331-9.433,18.61-9.433,18.606,4.224,18.606,9.433" transform="translate(497.777 273.35)" fill="#2b383d"/>
    <path id="Path_2366" data-name="Path 2366" d="M749.953,238.368c0,27.012-177.373-2.637-282.871,25.952-147.329,39.926-207.73-23.744-197.912-48.91,19.081-48.91,88.607-48.91,197.912-48.91s282.871,44.855,282.871,71.868" transform="translate(267.161 165.888)" fill="#fff" opacity="0.2"/>
    <path id="Path_2367" data-name="Path 2367" d="M388.25,271.112c23.714,28.282-15.234,79.853-177,44.917-75.21-16.244-139.32-14.078-139.32-31.442s62.7-24.407,139.32-31.442c108.718-9.982,165.839,4.661,177,17.967" transform="translate(71.67 248.931)" fill="#fff" opacity="0.2"/>
    <path id="Path_2368" data-name="Path 2368" d="M342.58,111.963s133.694-11.712,197.293-6.877c100.469,7.638,15.318-38.655-29.991-35.658,0,0-23.88-29.873-55.314-21.95s-38.7,29.166-38.7,29.166-12.625-19.891-54.13-9.8-39.765,41.887-19.155,45.115" transform="translate(327.191 45.971)" fill="#e3ece9"/>
    <path id="Path_2369" data-name="Path 2369" d="M501.045,58.922s67.673-1.1,120.77,1.515l-1.948-33.62c-7.518-4.049-17.39-7.221-28.573-5.52-25.166,3.827-31.3,17.556-31.3,17.556s-9.728-13.729-42.949-8.918-32.358,25.922-16,28.987" transform="translate(488.208 20.751)" fill="#e3ece9"/>
    <path id="Path_2370" data-name="Path 2370" d="M349.184,42.249,364.157,90.66l12.976,5.49L394.6,50.234l-6.987-8.484Z" transform="translate(347.901 41.596)" fill="#ffcc84"/>
    <path id="Path_2371" data-name="Path 2371" d="M316.277,267.664s-2.5,7.985-5.49,11.978-8.983,19.963,18.466,19.963,24.954-8.484,23.956-15.971-5.49-12.976-5.49-15.971-31.442,0-31.442,0" transform="translate(306.943 265.355)" fill="#fff"/>
    <path id="Path_2372" data-name="Path 2372" d="M353.209,276.993c1,7.486,3.494,15.971-23.956,15.971S307.793,276.993,310.787,273c0,0-3.244,6.738,3.993,9.982s9.56-1.5,16.134-1.248,6.574,5.24,15.308,3.743,6.987-8.484,6.987-8.484" transform="translate(306.943 271.997)" fill="#2b383d"/>
    <path id="Path_2373" data-name="Path 2373" d="M424.2,267.664s2.5,7.985,5.49,11.978,8.983,19.963-18.466,19.963-24.954-8.484-23.956-15.971,5.49-12.976,5.49-15.971,31.442,0,31.442,0" transform="translate(385.302 265.355)" fill="#fff"/>
    <path id="Path_2374" data-name="Path 2374" d="M387.267,276.993c-1,7.486-3.494,15.971,23.956,15.971s21.46-15.971,18.466-19.963c0,0,3.244,6.738-3.993,9.982s-9.56-1.5-16.134-1.248-6.574,5.24-15.308,3.743-6.987-8.484-6.987-8.484" transform="translate(385.302 271.997)" fill="#2b383d"/>
    <path id="Path_2375" data-name="Path 2375" d="M375.1,178.161s-18.256,200.3-18.921,201.962-3.328,14.972,2.661,14.306,16.26-11.978,16.26-11.978V364.965l-10.044,5.176L378.142,175.5Z" transform="translate(353.713 174.855)" fill="#2b383d"/>
    <path id="Path_2376" data-name="Path 2376" d="M490.874,241.611C485.967,197.692,466.5,121.167,466.5,121.167l-29.9,10.764-27.949-8.6-26.95,9.816-33.273-11.978s-19.464,76.525-24.371,120.444-14.022,169.354-14.022,169.354,20.516,18.3,41.767,0c0,0,14.593-95.009,25.242-140.833,9.173-39.481,15.873-65.493,17.552-71.942h25.741c1.679,6.448,8.379,32.46,17.552,71.942,10.648,45.824,25.243,140.833,25.243,140.833,21.249,18.3,41.765,0,41.765,0s-9.115-125.435-14.022-169.354" transform="translate(308.896 120.722)" fill="#fbf2d5"/>
    <path id="Path_2377" data-name="Path 2377" d="M374.6,224.143s11.872,6.987,34.936,0l22.548-101.064,18.875-84.594S429.5,31,419.02,30L392.568,88.892,351.829,42.477l-22.145,10.98,15.471,66.378Z" transform="translate(328.472 29.89)" fill="#394a51"/>
    <path id="Path_2378" data-name="Path 2378" d="M424.364,86.551,401.815,187.615c-23.064,6.987-34.936,0-34.936,0L337.434,83.307s1.663-18.634,7.985-16.47,8.552,8.744,20.961,4.492,21.6-6.562,36.6,0,21.385,15.222,21.385,15.222" transform="translate(336.194 66.417)" fill="#2b383d"/>
    <path id="Path_2379" data-name="Path 2379" d="M389.576,82.167s-17.967,71.868-23.956,129.1c0,0-.665,7.319-1.331,10.646s6.656,12.643,6.656,12.643l13.974-4.657S430.167,167.344,448.8,98.138L425.51,84.828Z" transform="translate(362.907 81.865)" fill="#ffd59b"/>
    <path id="Path_2380" data-name="Path 2380" d="M392.042,160.148s-2.661,9.648-3.659,12.976,4.324,10.646,4.324,13.974-3.326,10.646-7.985,14.972-6.32,8.319-10.646,8.319-8.65-3.661-8.65-3.661L360.1,177.782s3.328-6.654,4.326-11.311,2.995-15.971,2.995-15.971,7.652,9.982,24.621,9.648" transform="translate(358.777 149.947)" fill="#fff"/>
    <path id="Path_2381" data-name="Path 2381" d="M313.184,90.817s30.424,101.938,72.367,144.734c0,0,5.083,4.655,4.248,7.933s-2.553,18.019.094,23.01,11.345,21.8,18.366,21.461,4.3-9.023,6.238-10.98,8.151-9.982,5.324-12.477-11.563-16.47-11.563-16.47,10.565,12.311,11.064,13.641,3.993-.331,4.991-2.661.331-7.153-.833-9.317-5.655-4.657-10.646-10.147-6.656-6.322-6.987-7.652-13.31-87.838-31.941-147.063l-27.949-2.661Z" transform="translate(312.033 81.865)" fill="#ffd59b"/>
    <path id="Path_2382" data-name="Path 2382" d="M350.559,174.984s1.248,7.486,2.745,10.481,10.231,19.215,17.717,18.466,5.739-9.732,7.736-11.728S385,184.966,384,181.722s-10.98-15.222-10.98-15.222-3.244,13.725-11.978,12.727-10.481-4.242-10.481-4.242" transform="translate(349.271 165.888)" fill="#2b383d"/>
    <path id="Path_2383" data-name="Path 2383" d="M378.571,301.771a16.635,16.635,0,1,1,16.635-16.635" transform="translate(360.604 267.513)" fill="#fff"/>
    <path id="Path_2384" data-name="Path 2384" d="M364.338,30.25s-58.067,6.5-56.9,60.389c1,45.915,10.481,54.9,10.481,54.9s37.93,11.978,63.383-10.481c0,0-2.995-21.46-5.989-31.941s-10.98-72.866-10.98-72.866" transform="translate(306.295 30.139)" fill="#394a51"/>
    <path id="Path_2385" data-name="Path 2385" d="M404.632,34.25s46.415,13.974,44.917,53.9-10.481,62.884-10.481,62.884-13.475,3.993-34.437-2.5-28.448-16.47-28.448-16.47,3.494-23.457,4.492-31.442S404.632,34.25,404.632,34.25" transform="translate(374.802 34.124)" fill="#394a51"/>
    <path id="Path_2386" data-name="Path 2386" d="M348.306,24s-6.488,1-9.483,5.49c-2.132,3.2-3.252,10.946-3.719,15.146a10.956,10.956,0,0,0,.743,5.342c3.542,8.738,15.184,37.1,16.452,35.409,1.5-2,8.983-13.974,10.98-12.477s19.464,27.449,19.464,27.449l4.492-5.49s-17.967-28.947-19.963-33.438S348.306,24,348.306,24" transform="translate(333.806 23.912)" fill="#2b383d"/>
    <path id="Path_2387" data-name="Path 2387" d="M385.4,25.5s15.472,7.985,15.971,11.479S394.382,83.893,390.888,82.4s-9.982-12.477-12.477-9.982-8.484,20.462-10.481,22.958-7.985,5.49-8.984,3.494S385.4,25.5,385.4,25.5" transform="translate(357.602 25.406)" fill="#2b383d"/>
    <path id="Path_2388" data-name="Path 2388" d="M347.434,44.729S353.922,60.2,368.895,61.7s22.459-18.466,22.459-18.466L375.383,33.25Z" transform="translate(346.157 33.128)" fill="#ffd59b"/>
    <path id="Path_2389" data-name="Path 2389" d="M408.151,21.46C401.523,5.733,383.175,1.336,377.1.291l0-.291s-.363.038-1,.132c-.635-.094-1-.132-1-.132l0,.291c-6.073,1.046-24.4,5.444-31.021,21.169-7.985,18.965,1,32.939,1,32.939h61.886s9.175-13.974,1.182-32.939" transform="translate(339.525)" fill="#fe0000"/>
    <path id="Path_2390" data-name="Path 2390" d="M373.877,24c-19.714,0-30.943,6.488-30.943,6.488s2.995,22.039,5.989,26.242S361.15,53.2,373.877,53.2s21.96,7.736,24.954,3.533,5.989-26.242,5.989-26.242S393.591,24,373.877,24" transform="translate(341.674 23.912)" fill="#c00606"/>
  </g>
</svg>
