<svg xmlns="http://www.w3.org/2000/svg" width="91.337" height="109.59" viewBox="0 0 91.337 109.59"><defs><style>.a{fill:#fff;}.b{fill:#fe0000;}</style></defs><path class="a" d="M196.073,461.327a1.606,1.606,0,1,0,1.291,1.576A1.61,1.61,0,0,0,196.073,461.327Zm0,0" transform="translate(-152.595 -362.559)"/><path class="a" d="M216.711,440.866a1.605,1.605,0,1,0-1.605,1.605A1.6,1.6,0,0,0,216.711,440.866Zm0,0" transform="translate(-167.802 -345.241)"/><path class="a" d="M223,468.9a1.606,1.606,0,1,0-1.605-1.605A1.61,1.61,0,0,0,223,468.9Zm0,0" transform="translate(-174.004 -366.01)"/><path class="a" d="M242.33,446.862a1.6,1.6,0,1,0-1.608-1.6A1.608,1.608,0,0,0,242.33,446.862Zm0,0" transform="translate(-189.197 -348.692)"/><path class="a" d="M236.044,418.824a1.606,1.606,0,1,0-1.606,1.606A1.6,1.6,0,0,0,236.044,418.824Zm0,0" transform="translate(-182.996 -327.915)"/><path class="a" d="M81.928,81.553l-2.347.566a1.606,1.606,0,0,0,.753,3.122l2.347-.567a4.414,4.414,0,0,1,5.178,2.764,4.292,4.292,0,0,1-2.931,5.64L76.494,95.31a6.422,6.422,0,0,1-7.183-2.98l-3.36-5.8a18.746,18.746,0,0,0,6.7.422,1.605,1.605,0,1,0-.375-3.189,15.5,15.5,0,0,1-5.4-.314l-3.145-.745L47.525,54.759l3.824-6.594a4.816,4.816,0,0,0,2.247-.11h0a4.834,4.834,0,0,0,2.808-2.2L78.8,7.234A4.817,4.817,0,1,0,70.461,2.4L48.07,41.016a4.8,4.8,0,0,0,.5,5.538l-2.9,5-2.9-5a4.826,4.826,0,0,0,.5-5.54L20.878,2.4a4.818,4.818,0,0,0-8.335,4.834L34.934,45.85a4.808,4.808,0,0,0,5.055,2.315l3.824,6.594L27.607,82.709l-3.145.745c-4.448,1.053-6.913.064-15.051-1.9A7.626,7.626,0,0,0,.467,86.327,7.513,7.513,0,0,0,5.59,96.183c9.214,2.438,9.272,2.549,10.881,2.549a9.647,9.647,0,0,0,8.334-4.793L45.67,57.96,66.533,93.94a9.647,9.647,0,0,0,8.334,4.793c1.61,0,1.669-.112,10.881-2.55a7.512,7.512,0,0,0,5.124-9.855,7.627,7.627,0,0,0-8.945-4.774ZM73.239,4.012a1.606,1.606,0,1,1,2.779,1.611L57.677,37.255l-2.8-1.577ZM50.847,42.626l2.418-4.17,2.8,1.576-2.439,4.206a1.606,1.606,0,1,1-2.779-1.612ZM33.663,37.255,15.32,5.623A1.607,1.607,0,0,1,18.1,4.012L36.463,35.678Zm6.245,7.567a1.605,1.605,0,0,1-2.2-.584l-2.438-4.206,2.8-1.576,2.418,4.17a1.608,1.608,0,0,1-.584,2.2ZM22.027,92.33a6.422,6.422,0,0,1-7.183,2.98L6.411,93.079a4.293,4.293,0,0,1-2.932-5.64,4.415,4.415,0,0,1,5.178-2.764c8.24,1.99,11.19,3.175,16.731,1.86Zm0,0" transform="translate(-0.001 -0.001)"/><path class="b" d="M170.467,381a1.6,1.6,0,0,0,1.112-1.979,15.436,15.436,0,1,0,0,8.359,1.606,1.606,0,1,0-3.092-.867,12.231,12.231,0,1,1,0-6.626,1.607,1.607,0,0,0,1.98,1.113Zm0,0" transform="translate(-111.038 -289.049)"/></svg>