<svg xmlns="http://www.w3.org/2000/svg" width="19.544" height="28.664" viewBox="0 0 19.544 28.664">
  <path id="Path_802" data-name="Path 802" d="M27.241,16.984H24.635v-.651a1.3,1.3,0,0,0-1.3-1.3V3.954A1.957,1.957,0,0,0,21.378,2h-1.3a1.954,1.954,0,1,0,0,3.909h1.954v9.121H18.772V7.863a1.957,1.957,0,0,0-1.954-1.954h-1.3a1.954,1.954,0,0,0,0,3.909h1.954v5.212H14.212V11.772a1.957,1.957,0,0,0-1.954-1.954h-1.3a1.954,1.954,0,0,0,0,3.909h1.954v1.3a1.3,1.3,0,0,0-1.3,1.3V28.059a2.608,2.608,0,0,0,2.606,2.606h7.818a2.608,2.608,0,0,0,2.606-2.606v-1.3h2.606a1.3,1.3,0,0,0,1.3-1.3V18.287A1.3,1.3,0,0,0,27.241,16.984ZM19.423,3.954a.652.652,0,0,1,.651-.651h1.3a.652.652,0,0,1,.651.651v.651H20.075a.652.652,0,0,1-.651-.651Zm-4.56,3.909a.652.652,0,0,1,.651-.651h1.3a.652.652,0,0,1,.651.651v.651H15.515A.652.652,0,0,1,14.863,7.863ZM10.3,11.772a.652.652,0,0,1,.651-.651h1.3a.652.652,0,0,1,.651.651v.651H10.954A.652.652,0,0,1,10.3,11.772Zm13.029,4.56V26.756H12.909V24.8h7.166a.651.651,0,0,0,.651-.651V18.938a.651.651,0,0,0-.651-.651H12.909V16.332ZM12.909,19.59h6.515V23.5H12.909Zm9.121,9.772H14.212a1.3,1.3,0,0,1-1.3-1.3H23.332a1.3,1.3,0,0,1-1.3,1.3Zm5.212-3.909H24.635V18.287h2.606Z" transform="translate(-9 -2)" fill="#fff"/>
</svg>
