<svg xmlns="http://www.w3.org/2000/svg" width="20.046" height="16.284" viewBox="0 0 20.046 16.284">
  <g id="twitter" transform="translate(0 0)">
    <path id="Path_6" data-name="Path 6" d="M60.359,110.508a11.74,11.74,0,0,0,18.014-9.922q0-.243-.01-.483A9.224,9.224,0,0,0,80.4,98.01a9.522,9.522,0,0,1-2.33.6h-.007l.006,0a4.364,4.364,0,0,0,1.792-2.286,14.3,14.3,0,0,1-2,.834c-.193.064-.4.127-.6.186a4.119,4.119,0,0,0-7.019,3.747,12.4,12.4,0,0,1-8.454-4.274s-1.969,2.688,1.173,5.451a4.232,4.232,0,0,1-1.779-.53,3.914,3.914,0,0,0,3.256,4.089,3.769,3.769,0,0,1-1.817.076,4.06,4.06,0,0,0,3.786,2.877,7.912,7.912,0,0,1-6.048,1.728Z" transform="translate(-60.358 -96.041)" fill="#fff"/>
  </g>
</svg>
