<svg xmlns="http://www.w3.org/2000/svg" xmlns:xlink="http://www.w3.org/1999/xlink" width="368" height="224" viewBox="0 0 368 224">
  <defs>
    <linearGradient id="linear-gradient" y1="0.054" x2="0.985" y2="0.934" gradientUnits="objectBoundingBox">
      <stop offset="0" stop-color="#40d3a0"/>
      <stop offset="1" stop-color="#008664"/>
    </linearGradient>
    <filter id="Rectangle_2" x="0" y="0" width="368" height="224" filterUnits="userSpaceOnUse">
      <feOffset dy="12" input="SourceAlpha"/>
      <feGaussianBlur stdDeviation="12" result="blur"/>
      <feFlood flood-opacity="0.102"/>
      <feComposite operator="in" in2="blur"/>
      <feComposite in="SourceGraphic"/>
    </filter>
    <clipPath id="clip-path">
      <rect id="Rectangle_273" data-name="Rectangle 273" width="56.057" height="101.654" transform="translate(0 0)" fill="none"/>
    </clipPath>
    <filter id="Rectangle_9" x="16" y="96" width="192" height="112" filterUnits="userSpaceOnUse">
      <feOffset dy="12" input="SourceAlpha"/>
      <feGaussianBlur stdDeviation="12" result="blur-2"/>
      <feFlood flood-color="#0c9570" flood-opacity="0.4"/>
      <feComposite operator="in" in2="blur-2"/>
      <feComposite in="SourceGraphic"/>
    </filter>
  </defs>
  <g id="Group_3620" data-name="Group 3620" transform="translate(-292 -840)">
    <g id="Group_3654" data-name="Group 3654">
      <g id="Group_3619" data-name="Group 3619" transform="translate(312)">
        <g id="Group_3618" data-name="Group 3618">
          <g id="Group_3613" data-name="Group 3613" transform="translate(0 776)">
            <g transform="matrix(1, 0, 0, 1, -20, 64)" filter="url(#Rectangle_2)">
              <rect id="Rectangle_2-2" data-name="Rectangle 2" width="296" height="152" rx="14" transform="translate(36 24)" fill="url(#linear-gradient)"/>
            </g>
          </g>
          <g id="Group_3563" data-name="Group 3563" transform="translate(-40 752)">
            <path id="Path_954" data-name="Path 954" d="M64-8c32.309,0,53,16.283,53,26.5S104.309,16,72,16,20.016,26.217,20.016,16,31.691-8,64-8Z" transform="translate(219 219)" fill="#fff" opacity="0.24"/>
            <g id="Group_3560" data-name="Group 3560" transform="translate(255.943 128)">
              <g id="Group_3559" data-name="Group 3559" clip-path="url(#clip-path)">
                <path id="Path_911" data-name="Path 911" d="M17.647,18.924A80.967,80.967,0,0,1,25.706,23.5c1.462-1.548,4.63-3.214,7.084-5.3a21.744,21.744,0,0,0,3.085-3.18c1-1.3,1.039-1.876,1.931-1.984,1.066-.13,3.824.983,5.362,1.27l-1.2.8-4.841,2.907a57.616,57.616,0,0,1-8.245,10.128c-.464.478-.933,1.11-1.587,1.238a5.352,5.352,0,0,1-2.214-.333l-6.454-1.527-2.656-7.2Z" fill="#f0c17d"/>
                <path id="Path_912" data-name="Path 912" d="M17.647,18.593c1.633.9,3.605,1.872,5.4,2.9l-.517,6.953-3.912-.926-2.656-7.529Z" fill="#c5ebf0"/>
                <path id="Path_913" data-name="Path 913" d="M39.286,11.134l-.03.079c-.007,1.2-.019,2.276-.127,3.477A11.121,11.121,0,0,0,40.883,17.6c.656.791,2.862,2.649,3.732,2.407.668-.186.688-1.041,1.689-2.419l.267-2.329-1.92-3.917Z" fill="#f0c17d"/>
                <path id="Path_914" data-name="Path 914" d="M38.174,92.461l-.109,5.126-2.7,2.845-4.409-.563-.182-3.837,2.369-4.2Z" fill="#15181f"/>
                <path id="Path_915" data-name="Path 915" d="M36.163,39.186,34.37,47.805a40.31,40.31,0,0,0-.964,7.695L31.982,92.9l3.3.861,3.751-.4,3.832-39.093.837-.4,1.274-14.618Z" fill="#f62923"/>
                <path id="Path_916" data-name="Path 916" d="M48.659,92.461l.109,5.126,2.7,2.845,4.408-.563.182-3.837-2.368-4.2Z" fill="#15181f"/>
                <path id="Path_917" data-name="Path 917" d="M50.671,39.186l1.793,8.619a40.389,40.389,0,0,1,.964,7.695l1.424,37.4-3.3.861-3.751-.4L43.972,54.266l-.838-.4L41.86,39.252Z" fill="#f62923"/>
                <path id="Path_918" data-name="Path 918" d="M50.671,39.186l1.793,8.619a40.389,40.389,0,0,1,.964,7.695l1.424,37.4-2.748.718L50.8,72.188C49.981,60.2,49.4,53.2,48.074,41.362a19.111,19.111,0,0,1-.048-2.156Z" fill="#d4140e"/>
                <path id="Path_919" data-name="Path 919" d="M52.058,46.158a25.717,25.717,0,0,1-.232-2.716c.786-4.429.22-6.4,1.086-10.91.71-3.694.093-6.676.982-13.509-1.356-1.659-5.216-.358-6.122-4.918-.039.378-.091.757-.15,1.137l-2.439,2.533-2.375.615-.58-.138-2.165-1.625c.079-.221-1.327-2.291-1.241-2.508-.582,2.543-5.533,2.618-6.448,5.062-.838,2.245,1.531,5.991,1.941,9.148.26,2,.644,12.538.446,14.488-.112,1.116-.29,2.222-.488,3.341Z" fill="#e6e6e6"/>
                <path id="Path_920" data-name="Path 920" d="M47.893,13.458a16.965,16.965,0,0,1-4.649,4.917,5.21,5.21,0,0,1,1.8,2.553,14.993,14.993,0,0,0,3.1-6.665Z" fill="#f3f3f3"/>
                <path id="Path_921" data-name="Path 921" d="M38.871,13.457a16.972,16.972,0,0,0,4.65,4.918,5.212,5.212,0,0,0-1.8,2.552,14.989,14.989,0,0,1-3.1-6.664Z" fill="#f3f3f3"/>
                <path id="Path_922" data-name="Path 922" d="M52.058,46.158a25.717,25.717,0,0,1-.232-2.716c.786-4.429.22-6.4,1.086-10.91.71-3.694.093-6.676.982-13.509-.751-.918-2.27-.93-3.629-1.531-.944,8.342-2.536,16.266-2.19,23.869.076,1.689.17,3.277.276,4.8Z" fill="#d6d6d6"/>
                <path id="Path_923" data-name="Path 923" d="M43.734,45.762l1.389,45.884.724-.01L44.459,45.753Z" fill="#15181f"/>
                <path id="Path_924" data-name="Path 924" d="M44.486,45.28l-.646,0a.78.78,0,0,0-.777.8l.209,8.108a.816.816,0,0,0,.816.791l.647-.005a.778.778,0,0,0,.775-.8L45.3,46.07a.816.816,0,0,0-.816-.79" fill="#9c9c9c"/>
                <path id="Path_925" data-name="Path 925" d="M44.788,91.323l1.321-.022.125,3.439-1.321.022Z" fill="#707070"/>
                <path id="Path_926" data-name="Path 926" d="M45.527,93.462c.739-.013,1.392,1.45,1.458,3.268s-.48,3.3-1.22,3.312-1.391-1.45-1.458-3.267.48-3.3,1.22-3.313" fill="#707070"/>
                <path id="Path_927" data-name="Path 927" d="M47.856,44.343c1.625-2.992,3.227-5.807,3.644-9.678,1.711-4.9,5.142-11.9,2.308-15.334-1.006-1.218-3.48.138-4.316,1.145-.174,2.086-.888,4.085-1.118,5.952-.6,2.072-.6,4.056-1.161,6.3-.2.805-.6,1.555-.753,2.309-.7,3.5-.4,6.835-.834,8.994-.18.908-1.177,1.492-1.392,2.57-.463,2.33.552,4.948.7,7.614a5.092,5.092,0,0,0,2.124-2.88c.851-.731.962-.6.908-1.178A28.655,28.655,0,0,1,47.383,47a9.175,9.175,0,0,1,.473-2.66" fill="#f0c17d"/>
                <path id="Path_928" data-name="Path 928" d="M54.112,19.173a5.53,5.53,0,0,1,1.257,3.511c.007,2.2-.925,4.829-1.753,7.181L47.722,28.9a23.716,23.716,0,0,1,.4-2.452c.142-1.163-.026-4.7,1.3-6.742.906-1.4,3.189-2.362,4.695-.537" fill="#d6d6d6"/>
                <path id="Path_929" data-name="Path 929" d="M39.432,12.614c.873,1.747,1.738,3.23,2.82,5.158.362.644.567,1,1.582.9.99-.094,2.469-.253,2.684-.663.967-1.842,2.263-8.685,1.687-9.905-1.556-3.3-6.828-3.455-8.589-.489-.695,1.169-.309,4.287-.184,5" fill="#ffdba7"/>
                <path id="Path_930" data-name="Path 930" d="M39.484,12.848a5.906,5.906,0,0,1,.029-1.75c.047-.373.317.519.738.9.279-1.537.142-5.286.256-6.306-.6,1.138-.809.013-1.1.474-.825,1.323-.872,4.018.074,6.684" fill="#632404"/>
                <path id="Path_931" data-name="Path 931" d="M49.844,10.914l-9.257.629c.633,1.817,1.056,3.5,1.488,4.574.52,1.3.618,1.207,1.738,1.234l5.775-.255c1.851-.139,1.576-.91,1.2-2.69-.265-1.267-.6-2.338-.947-3.492" fill="#d4140e"/>
                <path id="Path_932" data-name="Path 932" d="M49.97,11.229c.63-4.392-.888-9.661-6.654-9.119a4.963,4.963,0,0,0-4.535,5c-.111,1.77.4,3.022,1.813,4.749,2.407.666,7.245.724,9.376-.629" fill="#f62923"/>
                <path id="Path_933" data-name="Path 933" d="M32.746,28.208c.642,2.3,1.044,5.342,2.265,7.067.7,1.344,4.791,2.121,4.281-1.594s-.6-6.594-1.307-11.921c-.462-3.481-1.664-3.826-4.008-3.035-3.183.919-1.881,7.15-1.231,9.483" fill="#ffdba7"/>
                <path id="Path_934" data-name="Path 934" d="M32.349,28.1l6.368-.8c-.051-1.528.069-2.942-.166-5.179-.673-6.369-6.786-4.806-7.2-1.824-.36,2.576.577,5.963,1,7.807" fill="#ededed"/>
                <path id="Path_935" data-name="Path 935" d="M34.856,34.329a16.506,16.506,0,0,0,.343,2.04c.727,2.466,1.976,3.819,4.546,7.476a7.35,7.35,0,0,1,1.434,3.233,27.608,27.608,0,0,1-.061,3.949c-.013.886-.219,1.173.667,1.446-.045.56.09,1.072.632,1.043,0,.543.26.993.63.931.073.337.43,1.887.723.974a4.556,4.556,0,0,0,.179-1.548,3.671,3.671,0,0,1,.957-2.411c.063.508.429,1.226.619,2.04.762-.6.6-1.361.564-2.187-.02-.53.04-1.038.015-1.235a2.328,2.328,0,0,0-.362-.919c-.257-.43-.642-1.038-1.014-1.609A18.484,18.484,0,0,1,42.08,41.7c-.487-1.81-.414-3.725-1.028-5.563-.488-1.466-.418-.833-2.033-3.79-.387-1.423-5.154-1.51-4.163,1.986" fill="#ffdba7"/>
                <path id="Path_936" data-name="Path 936" d="M23.575,3.986c.131,3.727-2.951,4.056-6.624,3.71l-.188-2.144.892-1.167,1.517-.516Z" fill="#c5ebf0"/>
                <path id="Path_937" data-name="Path 937" d="M8.946,12.445l-.816,4.4,5.221,4.2,1.064-.993c1.314-3.744.212-3.371,1.483-7.9L10.3,9.018c-.335,2.656-.883,1.541-1.355,3.427" fill="#f0c17d"/>
                <path id="Path_938" data-name="Path 938" d="M19.355,11.441a.665.665,0,0,0,.254.79.557.557,0,0,1-.4.58c-1.077-.141-.71.58-.626.593.782.122.667.4.519.648-.224.04-.325.124-.355.235-.089.339.5,1.047-.011,1.616-.621.686-3.764-.966-5.228-1.727-1.213-.63-.788-1.464-.621-2.784-.7.075-1.235-.147-1.241-1.239A15.8,15.8,0,0,1,9.939,6.315S12.366.555,12.51.523s4.658.669,4.658.669c.525.887,1.4,1.715,1.94,2.746a9.15,9.15,0,0,1,.926,2.957,1.459,1.459,0,0,1-.081,1.128,1.243,1.243,0,0,0-.169.427c-.033,1.113,1.022,2.114.956,2.421a1.253,1.253,0,0,1-1.385.57" fill="#ffdba7"/>
                <path id="Path_939" data-name="Path 939" d="M14.983,7.907a13.348,13.348,0,0,0-.413,2.041c-.528-.556-.655-.978-1.091-1.436-.612-.581-1.4-1.148-1.986-.919-.677.264-.343,1.514.2,2.38a1.544,1.544,0,0,1,.2,1.279c-.252.71-.972.375-1.628,1.073A20.183,20.183,0,0,0,8.686,14a6.594,6.594,0,0,0-.77-3.266,6.676,6.676,0,0,1-.843-2.211,6.435,6.435,0,0,1,3.871-7.4c3.34-1.329,7.183.166,8.115,2.716a7.224,7.224,0,0,0-2.669.707,4.231,4.231,0,0,0-1.056,3.783Z" fill="#632404"/>
                <path id="Path_940" data-name="Path 940" d="M7.1,8.92a9.147,9.147,0,0,1-.348-1.646,6.622,6.622,0,0,1,4.7-7c3.634-.857,5.88.4,7.223,2.346A8.022,8.022,0,0,1,19.484,4.1c-2.26.846-4.382,1.68-6.677,2.5C10.792,7.32,8.733,7.655,7.1,8.92" fill="#dbfbff"/>
                <path id="Path_941" data-name="Path 941" d="M19.381,3.878c1.877-.045,2.5.026,4.2.084-2.024,2.333-5.9,1.893-8.8,1.87a10.41,10.41,0,0,1,4.6-1.954" fill="#edfdff"/>
                <path id="Path_942" data-name="Path 942" d="M21.282,28.4c-2.351-.792-4.668.421-6.089,1.79-.242-.674-.529-1.456-.869-2.368-2.219-5.957-2.838-9.184,1.518-9.541,5.284-.334,5.394,7.535,5.44,10.119" fill="#c5ebf0"/>
                <path id="Path_943" data-name="Path 943" d="M20.529,100.795c-2.243,1.359-5.8.227-8.044.014a3.484,3.484,0,0,1-2.448.061c-1.024-.208-.817-2.71-.52-4.22a15.318,15.318,0,0,0-.012-3.489l4.269-1.09c-.195,2.191-.415,2.956.142,3.888,1.149,1.925,3.645,2.062,5.311,2.13,2.621.108,2.79,1.8,1.3,2.706" fill="#141313"/>
                <path id="Path_944" data-name="Path 944" d="M6.042,56.742c-.8-3.185-.981-4.4-.608-6.489A20.661,20.661,0,0,1,7.951,43.77l8.65,1.854.857,7.615L15.484,69.718,14.61,96.042l-5.92.617L7.417,78.126,9.1,69.572c-.377-4.36-2.171-9.279-3.06-12.83" fill="#18ace8"/>
                <path id="Path_945" data-name="Path 945" d="M15.233,101.06c-2.242,1.307-5.8.09-8.043-.176a3.472,3.472,0,0,1-2.448,0c-1.025-.232-.818-2.728-.52-4.232a15.385,15.385,0,0,0-.012-3.49l4.269-.989c-.2,2.186-.415,2.945.142,3.892,1.148,1.951,3.645,2.147,5.31,2.255,2.621.17,2.79,1.869,1.3,2.736" fill="#1f1c1d"/>
                <path id="Path_946" data-name="Path 946" d="M3.057,57.14c-1.468-6.883,1.3-8.25,2-13.369l8.836,2.366.272,7.536-.952,2.843L11.738,69.5l-.1.762L9.457,96.778l-5.943.616-.37-19.268,1-8.786a81.962,81.962,0,0,0-1.087-12.2" fill="#1cb3f0"/>
                <path id="Path_947" data-name="Path 947" d="M8.274,15.427c-1.862,1.708-4.533,1.931-5.61,2.886-.687.607-.666,1.2-1.1,1.954-1.92,3.358,1.967,14.088,3.387,23.916,3.015,3.623,11.2,2.984,11.754,2.776,1.291-7.1,2.9-10.5,3.231-16.277a37.116,37.116,0,0,0-.246-7.851c-.41-2.425-.412-3.546-2.357-4.861a8.338,8.338,0,0,1-2.076-1.992c-1.043,4.051-6.426,1.18-6.985-.551" fill="#dbfbff"/>
                <path id="Path_949" data-name="Path 949" d="M.7,29.155c.145,1.079.541,2.618.809,4.225.227,1.361.487,2.59.8,3.83.165.649,6.777,6.108,5.053-.828.114-2.028-.113-2.861.381-9.867.447-6.341.131-9.612-4.149-8.725C-1.569,18.96.367,26.7.7,29.155" fill="#ffdba7"/>
                <path id="Path_950" data-name="Path 950" d="M.578,29.156c2.031-1.423,5.25-1.036,7-.125.042-.714.1-1.546.165-2.516C8.19,20.174,7.874,16.9,3.6,17.79-1.569,18.96.247,26.7.578,29.156" fill="#dbfbff"/>
                <path id="Path_951" data-name="Path 951" d="M22.476,45.047A18.38,18.38,0,0,0,19.2,43.231c-1.778-.852-1.93-.572-3.591-1.144l1.037-1.894c2.236-.385,2.374-.187,3.282.038,1.479.365,2.89,1.925,4.129,2.881,1.316.632,2.6,2.1,3.252,2.279,1.133.255,2.692.78,3.374.928.579.126.641.89,0,.957-1.27.13-2.95-.622-4.116-.554-1.592-.343-2.626-1.345-4.1-1.675" fill="#ffdba7"/>
                <path id="Path_952" data-name="Path 952" d="M18.634,39.981c3.01-.328,3.59.884,4.661,1.593a9.1,9.1,0,0,0,1.748.607c.635.152.894.447.739.964-.191.635-.876.377-1.828.1a6.032,6.032,0,0,0-1.436-.227c-2.114-.772-4.066-2.268-3.884-3.034" fill="#ffdba7"/>
                <path id="Path_953" data-name="Path 953" d="M6.993,33.942l12.276,6.1-.844,2.782L5.247,39.884c-1.109-.23-3.315-2.1-3.031-3.484.506-2.475,3.112-2.975,4.777-2.458" fill="#ffdba7"/>
              </g>
            </g>
            <ellipse id="Ellipse_43" data-name="Ellipse 43" cx="24.5" cy="5.5" rx="24.5" ry="5.5" transform="translate(261 237)" fill="#fff" opacity="0.4"/>
          </g>
          <g id="Group_3616" data-name="Group 3616" transform="translate(0 1)">
            <g id="Group_3614" data-name="Group 3614" transform="translate(0 728)">
              <g id="Group_3570" data-name="Group 3570" transform="translate(32 144)">
                <g id="Group_3397" data-name="Group 3397">
                  <g id="Group_3395" data-name="Group 3395">
                    <g id="Group_196" data-name="Group 196">
                      <text id="PLAY_LIKE_PRO" data-name="PLAY LIKE PRO" transform="translate(0 15)" fill="#fff" font-size="7" font-family="Poppins-Medium, Poppins" font-weight="500" letter-spacing="0.1em" opacity="0.7"><tspan x="0" y="0">PLAY LIKE PRO</tspan></text>
                    </g>
                  </g>
                </g>
              </g>
            </g>
            <g id="Group_3615" data-name="Group 3615" transform="translate(0 784)">
              <g id="Group_3570-2" data-name="Group 3570" transform="translate(32 144)">
                <g id="Group_3397-2" data-name="Group 3397">
                  <g id="Group_3395-2" data-name="Group 3395">
                    <g id="Group_196-2" data-name="Group 196">
                      <text id="Starting_from_Jan_20_2022" data-name="Starting from Jan 20, 2022" transform="translate(0 15)" fill="#fff" font-size="10" font-family="Poppins-Medium, Poppins" font-weight="500" letter-spacing="0.025em"><tspan x="0" y="0">Starting from Jan 20, 2022</tspan></text>
                    </g>
                  </g>
                </g>
              </g>
            </g>
            <g id="Group_2841" data-name="Group 2841" transform="translate(-247 218)">
              <g id="Group_3379" data-name="Group 3379" transform="translate(279 741)">
                <g id="Group_3472" data-name="Group 3472">
                  <g id="Group_4" data-name="Group 4">
                    <g transform="matrix(1, 0, 0, 1, -52, -120)" filter="url(#Rectangle_9)">
                      <rect id="Rectangle_9-2" data-name="Rectangle 9" width="120" height="40" rx="6" transform="translate(52 120)" fill="#fff"/>
                    </g>
                  </g>
                  <g id="Group_22" data-name="Group 22" transform="translate(27.867 8)">
                    <text id="Book_my_seat" data-name="Book my seat" transform="translate(-14.867 17)" fill="#0d9670" font-size="14" font-family="Poppins-Medium, Poppins" font-weight="500"><tspan x="0" y="0">Book my seat</tspan></text>
                  </g>
                </g>
              </g>
            </g>
          </g>
        </g>
      </g>
      <text id="AMATEURS_GOLF_TRAINING_CAMP" data-name="AMATEURS GOLF  
TRAINING CAMP" transform="translate(344 906)" fill="#fff" font-size="14" font-family="Poppins-Bold, Poppins" font-weight="700"><tspan x="0" y="0" xml:space="preserve">AMATEURS GOLF  </tspan><tspan x="0" y="18">TRAINING CAMP</tspan></text>
    </g>
  </g>
</svg>
