<svg xmlns="http://www.w3.org/2000/svg" width="17.371" height="22.5" viewBox="0 0 17.371 22.5">
  <g id="Group_2774" data-name="Group 2774" transform="translate(0.25 0.25)">
    <path id="Path_412" data-name="Path 412" d="M22.177,11.18l-.354,10.725a3.533,3.533,0,0,1-3.543,3.417H11.547A3.533,3.533,0,0,1,8,21.909L7.649,11.18a.886.886,0,1,1,1.772-.058l.354,10.728a1.772,1.772,0,0,0,1.772,1.7h6.732a1.772,1.772,0,0,0,1.772-1.707l.354-10.724a.886.886,0,0,1,1.772.058Zm1.172-3.569a.886.886,0,0,1-.886.886H7.364a.886.886,0,1,1,0-1.772H10.11a1.13,1.13,0,0,0,1.128-1.017,2.65,2.65,0,0,1,2.643-2.386h2.064a2.65,2.65,0,0,1,2.643,2.386,1.13,1.13,0,0,0,1.128,1.017h2.746a.886.886,0,0,1,.886.886ZM12.775,6.725h4.277a2.923,2.923,0,0,1-.226-.836.886.886,0,0,0-.881-.8H13.882a.886.886,0,0,0-.881.8,2.923,2.923,0,0,1-.227.836Zm.892,13.421V12.6a.886.886,0,0,0-1.772,0V20.15a.886.886,0,0,0,1.772,0Zm4.264,0V12.6a.886.886,0,1,0-1.772,0V20.15a.886.886,0,1,0,1.772,0Z" transform="translate(-6.478 -3.322)" fill="#f62923" stroke="#f62923" stroke-width="0.5"/>
  </g>
</svg>
