<svg xmlns="http://www.w3.org/2000/svg" xmlns:xlink="http://www.w3.org/1999/xlink" width="299.687" height="326.796" viewBox="0 0 299.687 326.796">
  <defs>
    <clipPath id="clip-path">
      <rect id="Rectangle_4066" data-name="Rectangle 4066" width="227.629" height="22.188" fill="#347cfa"/>
    </clipPath>
    <clipPath id="clip-path-2">
      <rect id="Rectangle_3470" data-name="Rectangle 3470" width="262.81" height="322.151" fill="none"/>
    </clipPath>
    <clipPath id="clip-path-3">
      <rect id="Rectangle_4068" data-name="Rectangle 4068" width="7.712" height="97.348" fill="#aecbfe"/>
    </clipPath>
  </defs>
  <g id="Group_8732" data-name="Group 8732" transform="translate(-1540.1 -114.409)">
    <g id="Group_8695" data-name="Group 8695" transform="translate(66.592 15.409)">
      <g id="Group_8689" data-name="Group 8689" transform="translate(1490.132 403.608)" opacity="0.5">
        <g id="Group_8688" data-name="Group 8688" transform="translate(0 0)" clip-path="url(#clip-path)">
          <path id="Path_4797" data-name="Path 4797" d="M227.629,11.094c0,6.127-50.956,11.094-113.814,11.094S0,17.221,0,11.094,50.956,0,113.814,0,227.629,4.967,227.629,11.094" transform="translate(0 0)" fill="#347cfa"/>
        </g>
      </g>
      <g id="Group_8690" data-name="Group 8690" transform="translate(1473.508 99)">
        <g id="Group_7407" data-name="Group 7407" clip-path="url(#clip-path-2)">
          <path id="Path_4087" data-name="Path 4087" d="M537.354,93.729h-.02a.2.2,0,0,1-.172-.141c-.036-.118-3.662-11.786-9.645-13.678s-9.417.279-9.451.3a.2.2,0,0,1-.22-.337c.145-.094,3.618-2.3,9.793-.347,2.6.824,5.066,3.425,7.314,7.734a42.072,42.072,0,0,1,2.467,5.819c.647-.826,2.7-2.765,7.553-2.468a.2.2,0,0,1,.188.213.2.2,0,0,1-.213.188c-5.755-.353-7.4,2.582-7.417,2.612a.2.2,0,0,1-.177.105" transform="translate(-316.605 -31.155)" fill="#2e2e47"/>
          <path id="Path_4088" data-name="Path 4088" d="M564.273,120.915H538.358a.2.2,0,1,1,0-.4h25.723c.039-1.147.054-7.233-3.859-9.154A.2.2,0,1,1,560.4,111c1.89.927,3.193,2.91,3.77,5.732a16.313,16.313,0,0,1,.305,4,.2.2,0,0,1-.2.187" transform="translate(-329.08 -50.88)" fill="#2e2e47"/>
          <path id="Path_4089" data-name="Path 4089" d="M450.175,104.546h-.016a.2.2,0,0,1-.185-.216c0-.064.557-6.458,5.945-9.234,4.658-2.4,9.861-.664,11.206-.141a9.621,9.621,0,0,1,.738-4.375c1.319-3.352,6.354-6.223,6.568-6.344a.2.2,0,1,1,.2.35c-.051.029-5.124,2.923-6.391,6.141a8.6,8.6,0,0,0-.668,4.505.2.2,0,0,1-.28.225c-.059-.027-5.987-2.682-11.186,0s-5.723,8.846-5.729,8.908a.2.2,0,0,1-.2.185" transform="translate(-275.157 -34.511)" fill="#2e2e47"/>
          <path id="Path_4090" data-name="Path 4090" d="M611.655,81.176l-.032,0a.2.2,0,0,1-.167-.23c.006-.039.584-3.933-2.609-5.9-3.172-1.951-5.288,0-5.377.089a.2.2,0,0,1-.335-.1c-.006-.029-.624-2.908-2.751-4.04a4.963,4.963,0,0,0-4.326.078c-3.049,1.25-4.23,5.234-4.241,5.274a.2.2,0,0,1-.315.1c-.025-.019-2.507-1.867-5.025-.944a5.561,5.561,0,0,0-3.2,3.641.2.2,0,0,1-.391-.093,5.866,5.866,0,0,1,3.45-3.926,6.043,6.043,0,0,1,5.176.842c.324-.948,1.6-4.125,4.391-5.271a5.34,5.34,0,0,1,4.669-.059,6.6,6.6,0,0,1,2.877,4,4.862,4.862,0,0,1,5.607.064c3.426,2.106,2.8,6.261,2.8,6.3a.2.2,0,0,1-.2.169" transform="translate(-356.43 -25.901)" fill="#2e2e47"/>
          <path id="Path_4091" data-name="Path 4091" d="M129.907,226.677H103.915a.2.2,0,0,1-.2-.2,4.842,4.842,0,0,1,1.727-4.152c1.324-1.044,3.352-1.494,6.031-1.34a21.193,21.193,0,0,1,3.3.465c-.037-.622.337-1.991,3.5-3.784a4.674,4.674,0,0,1,4.04-.655,3.62,3.62,0,0,1,1.825,1.736c.733-7.659,2.856-12.846,6.312-15.415a10.018,10.018,0,0,1,8.263-1.538,12.711,12.711,0,0,1,7.973,4.585.2.2,0,0,1-.32.242,12.327,12.327,0,0,0-7.732-4.434,9.634,9.634,0,0,0-7.945,1.467c-3.364,2.5-5.435,7.6-6.154,15.154-.079.824-.083.873-.273.893a.214.214,0,0,1-.226-.162,3.561,3.561,0,0,0-1.873-2.154,4.306,4.306,0,0,0-3.693.632c-3.9,2.206-3.267,3.6-3.26,3.611a.2.2,0,0,1-.023.218.2.2,0,0,1-.206.069c-.063-.017-6.31-1.624-9.292.728a4.39,4.39,0,0,0-1.575,3.631h25.793a.2.2,0,1,1,0,.4" transform="translate(-63.419 -123.232)" fill="#2e2e47"/>
          <path id="Path_4092" data-name="Path 4092" d="M227.516,250.871h-8.169a.2.2,0,1,1,0-.4h8.045a5.925,5.925,0,0,0,.431-4.193,4.21,4.21,0,0,0-2.574-2.413c-4.678-1.89-6.921,1.037-7.014,1.162a.2.2,0,0,1-.354-.178,20.88,20.88,0,0,0,.645-3.574.2.2,0,0,1,.4.039,23.069,23.069,0,0,1-.472,2.921c.981-.847,3.291-2.219,6.946-.743a4.593,4.593,0,0,1,2.8,2.652,6.355,6.355,0,0,1-.508,4.624.2.2,0,0,1-.177.106" transform="translate(-133.227 -147.426)" fill="#2e2e47"/>
          <path id="Path_4094" data-name="Path 4094" d="M413.853,215.343a54.736,54.736,0,0,1-13.689,13.889c8.69,14.934,35.782,55.886,42.368,51.294,4.606-3.211-12.917-36.99-28.679-65.184" transform="translate(-244.698 -131.681)" fill="#ffa982"/>
          <path id="Path_4095" data-name="Path 4095" d="M384.47,154.3c-11.7-20.919-24.831-40.6-24.831-40.6-1.485-1.951-7.105-1.965-10.875,3.638s11.482,34.329,18.3,46.713c.37.673.808,1.444,1.308,2.3,7.307-4.99,14.534-9.739,16.1-12.055" transform="translate(-212.907 -68.807)" fill="#fff"/>
          <path id="Path_4096" data-name="Path 4096" d="M440.021,328.474s4.374-6.861,8.117-7.847,12.117.506,14.78,3.2,2.535,4.157.04,6.03c-2.338,1.755-5.28,2.86-7.974,1.439s-9.741-2.26-11.92-1.746-19.929,26.318-19.929,26.318l-57.286,85.259-2.6-1.141Z" transform="translate(-222.128 -195.876)" fill="#2e2e47"/>
          <path id="Path_4097" data-name="Path 4097" d="M421.836,358.089s4.681-6.656,8.465-7.471,12.082,1.055,14.62,3.863,2.344,4.268-.234,6.027c-2.416,1.647-5.4,2.617-8.03,1.075s-9.629-2.7-11.828-2.285-21.1,25.388-21.1,25.388L342.63,467.257,340.088,466Z" transform="translate(-207.962 -214.284)" fill="#2e2e47"/>
          <path id="Path_4098" data-name="Path 4098" d="M431.369,391.436s4.111-5.845,7.434-6.561,10.611.927,12.84,3.392,2.058,3.748-.206,5.293c-2.121,1.447-4.746,2.3-7.053.944s-8.456-2.37-10.388-2.007-18.534,22.3-18.534,22.3l-53.656,72.519-2.232-1.1Z" transform="translate(-219.878 -235.246)" fill="#2e2e47"/>
          <path id="Path_4099" data-name="Path 4099" d="M497.111,361.359c.38-.164,8.839,7.333,9.944,8.438s1.929,7-.148,7.108-6.339.574-7.887,0-9.141-12.432-1.908-15.546" transform="translate(-302.101 -220.968)" fill="#ffa982"/>
          <path id="Path_4100" data-name="Path 4100" d="M398.943,464.717s-7.481,1.376-12.428,4.782-9.576,8.941-15.95,11.894-14.709,3.407-15.614,9.512,5.789,15.044,6.208,16.135,15.463-7.952,21.786-16.893,16-25.43,16-25.43" transform="translate(-216.999 -284.172)" fill="#2e2e47"/>
          <path id="Path_4101" data-name="Path 4101" d="M276,526.636s-5.241-7.765-4.383-13.342,22.811-28.542,26.618-31.008,5.635-2.919,14.357-6.275,12.962-7.24,13.995-9.139,15.437-24.964,15.437-24.964,9.262-14.487,14.168-20.721c7.86-.993,20.463-.066,25.794,2.925,6.7,3.762,7.286,7.877,11.161,13.394,2.192,3.12,4.415,6.948,6.074,9.814-11.553,16.9-64.556,94.342-68.589,98.346-4.528,4.5-11.389,1.628-11.389,1.628S286.15,533.495,276,526.636" transform="translate(-166.035 -257.32)" fill="#9e4f60"/>
          <path id="Path_4102" data-name="Path 4102" d="M274.207,693.212c10.149,6.859,43.243,20.658,43.243,20.658s-7.915,14.56-14.809,14.209-34.118-21.666-34.052-23.444,5.617-11.423,5.617-11.423" transform="translate(-164.241 -423.896)" fill="#2e2e47"/>
          <path id="Path_4103" data-name="Path 4103" d="M437.12,500.565c-.929,0-3.648-.251-14.162-6.424-5.34-3.136-10.163-6.322-10.211-6.353a1.105,1.105,0,0,1-.279-1.578l30.789-41.634a1.106,1.106,0,0,1,1.419-.312c.086.047,8.687,4.756,14.146,7.548a16.365,16.365,0,0,1,6.608,6.85,13.553,13.553,0,0,1,.535,11.788c-1.982,4.7-8.551,12.657-13.573,18.044-3.368,3.613-11.586,12.02-15.151,12.071h-.122m-22.18-13.981c7.377,4.813,19.138,11.771,22.242,11.771h.029c.217,0,1.486-.174,5.156-3.237a97.64,97.64,0,0,0,8.41-8.131c6.352-6.814,11.638-13.8,13.154-17.4a11.405,11.405,0,0,0-.461-9.914,14.264,14.264,0,0,0-5.651-5.9c-4.475-2.289-11.039-5.852-13.356-7.115Z" transform="translate(-252.09 -271.581)" fill="#ffa982"/>
          <path id="Path_4104" data-name="Path 4104" d="M515.253,416.541c-5.331-2.991-17.935-3.918-25.794-2.925a12.206,12.206,0,0,1,2.586-2.747c2.532-1.224,19.422-5.47,27.273,1.271S534.7,436.509,534.7,436.509s-.793,1.163-2.213,3.24c-1.658-2.865-3.882-6.693-6.073-9.814-3.875-5.518-4.457-9.633-11.161-13.394" transform="translate(-299.302 -249.748)" fill="#2e2e47"/>
          <path id="Path_4105" data-name="Path 4105" d="M494.036,400.77s1.376-7.634,4.925-10.045c2.182-1.482,7.232-1.942,10.915.737S515.5,400.3,515.5,400.3l-2.879.134s-2.21-6.429-5.491-7.567-5.96-.6-7.166.737-3.348,6.5-3.348,6.5Z" transform="translate(-302.101 -238.197)" fill="#2e2e47"/>
          <path id="Path_4106" data-name="Path 4106" d="M512.089,375.487s3.35,2.873,3.92,4.647-.846,3.573-3.482,3.784-2.21-.368-1.473-1.206a10.6,10.6,0,0,1,1.875-1.573,20.5,20.5,0,0,1-3.85-3.422c-.983-1.418,1.077-3.308,3.011-2.23" transform="translate(-311.144 -229.414)" fill="#ffa982"/>
          <path id="Path_4107" data-name="Path 4107" d="M337.159,11.307S332.367.68,329.734.107,326.2,1.449,325.613,1.46s-5.272-1.525-8.088-.51-3.07,14.243-2.189,15.123,23.564-2.38,21.823-4.766" transform="translate(-192.551 0)" fill="#ffea8f"/>
          <path id="Path_4108" data-name="Path 4108" d="M285.727,34.092c.64,4.713,11.56,7.358,24.409,5.344s23.042-6.753,22.119-12.638-11.518-7.538-24.366-5.524-22.964,6.914-22.162,12.817" transform="translate(-174.693 -12.509)" fill="#ffc97d"/>
          <path id="Path_4109" data-name="Path 4109" d="M367.632,41.857s1.023-.642,1.6.1.449,4.752-.431,4.858-2.12-3.919-1.169-4.957" transform="translate(-224.596 -25.438)" fill="#ffa982"/>
          <path id="Path_4110" data-name="Path 4110" d="M368.5,42.307a5.419,5.419,0,0,0,.287-1.913c-.017-1.151-.287-4.482-.287-4.482l-1.105-.042a28.267,28.267,0,0,0,.388,3.943c.268.887.717,2.495.717,2.495" transform="translate(-224.661 -21.934)" fill="#9c6f43"/>
          <path id="Path_4111" data-name="Path 4111" d="M338.1,47.683c-.106-1.718-1.1-6.6-1.3-7.584a49.888,49.888,0,0,0-1.028-5.044,18.5,18.5,0,0,0-8.351-.108c-5.166.944-7.553,2-8.526,2.548a1.8,1.8,0,0,1-.079.548.785.785,0,0,1-.27.388,9.944,9.944,0,0,1-1.819.585c-1.45.526-1.15,2.667-.542,4a5.531,5.531,0,0,0,2.478,2.155,16.356,16.356,0,0,0,1,5.079c.907,2.027,4.917,6.263,11.41,5.6,6.4-.649,7.219-4.986,7.021-8.168" transform="translate(-193.041 -21.119)" fill="#ffa982"/>
          <path id="Path_4112" data-name="Path 4112" d="M359.716,539.136s-1.458,4.269,7.548,2.29,25.246-6.455,22.539-9.005-26.235.521-30.087,6.715" transform="translate(-219.911 -325.023)" fill="#2e2e47"/>
          <path id="Path_4113" data-name="Path 4113" d="M197.7,321.04s-2.33,6.553-3.271,19.175c-1.531,20.539-.853,73.714-.853,73.714s-9.818,4.8-13.642,8.009c-8.916,7.494-30.052,31.395-30.052,31.395l6.88,6.566s43.85-13.351,55.645-36.5c5.491-10.779,14.01-50.989,16.006-59.323l7.629,42.636s-1.267,17.755-.974,23a261.838,261.838,0,0,0,11.774,62.56l10.7-1.233s6-64.353,5.786-84.56c-.206-19.08-7.19-90.906-7.19-90.906Z" transform="translate(-91.655 -192.966)" fill="#ffa982"/>
          <path id="Path_4114" data-name="Path 4114" d="M320.135,315.564,261.7,321.04s-2.33,6.553-3.271,19.175c-.969,13-3.957,51.3-3.888,64.365,5.136,2.637,16.934,7.634,33.383,2.5,1.18-14.436,3.354-38.269,4.49-43.009l3.041,43.009c9.474-2.29,19.989-8.12,31.759-5.715-.677-22.528-7.078-85.8-7.078-85.8" transform="translate(-155.649 -192.966)" fill="#e7f2f2"/>
          <path id="Path_4115" data-name="Path 4115" d="M412.08,233.291c-.4-5.579.134-14.517-.817-19.759a86.637,86.637,0,0,0-7.768-22.768l-3.654,23.221.125.218c2.674,4.595,7.089,11.652,12.114,19.088" transform="translate(-244.501 -116.651)" fill="#2e2e47"/>
          <path id="Path_4116" data-name="Path 4116" d="M331.4,183.728c-.106-19.222-1-72.948-24.508-81.911-24.156-9.209-29.8,18.216-30.7,32.981-1.145,18.707-2.692,34.652-3.226,54.405,14.238,2.156,37.448,3.763,58.435-5.476" transform="translate(-166.919 -61.13)" fill="#fa634b"/>
          <path id="Path_4117" data-name="Path 4117" d="M328.248,78.443s.413,5.457-.879,9.143c-.664,1.9,3.431,4.028,6.561,3.9,1.629-.066,3.282-.358,2.818-1.974-.429-1.49-1.227-3.087-1.439-3.771-.441-1.427-.911-5.636-1.172-6.244s-5.072-1.977-5.889-1.056" transform="translate(-200.141 -47.779)" fill="#ffa982"/>
          <path id="Path_4118" data-name="Path 4118" d="M324.262,55.846a7.228,7.228,0,0,1-.524-3.009c.091-2.369.392-6.683.489-6.959.12-.34.663-1.4,1.29-.687,0,0,1.42,5.592,3.546,7.074s4.872-.763,7.919-.92c1.1-.057,2.467.072,3.131-.306,2.19-1.246,1.819-3.984,2.11-3.063.005.06.963,6.033.966,6.086.2,3.181-.072,8.41-6.472,9.059-6.493.659-11.052-3.336-11.959-5.363-.108-.241-.387-1.645-.5-1.912" transform="translate(-197.961 -27.485)" fill="#9c6f43"/>
          <path id="Path_4119" data-name="Path 4119" d="M351.709,427.521a.2.2,0,0,1-.085-.019.2.2,0,0,1-.1-.268,16.1,16.1,0,0,1,8.657-8.226.2.2,0,0,1,.122.383,15.685,15.685,0,0,0-8.417,8.015.2.2,0,0,1-.182.115" transform="translate(-214.946 -256.216)" fill="#fff"/>
          <path id="Path_4120" data-name="Path 4120" d="M354.94,49.433a6.25,6.25,0,0,1-.743-.047.2.2,0,0,1,.048-.4c1.524.183,1.969-.222,2.09-.4a.686.686,0,0,0-.043-.714,7.007,7.007,0,0,0-.4-.6,6.57,6.57,0,0,1-1.25-2.636c-.322-1.406-.327-2.151-.02-2.57a1.366,1.366,0,0,1,1.091-.447c1.012-.081,2.752-.181,2.77-.183a.2.2,0,1,1,.023.4c-.017,0-1.753.1-2.761.182-.451.036-.675.115-.8.284-.224.305-.2,1,.088,2.242a6.15,6.15,0,0,0,1.184,2.49,7.211,7.211,0,0,1,.429.637,1.057,1.057,0,0,1,.029,1.135,1.988,1.988,0,0,1-1.729.629" transform="translate(-216.481 -25.335)" fill="#2e2e47"/>
          <path id="Path_4121" data-name="Path 4121" d="M338.032,43.618a.2.2,0,0,1-.078-.386,7.338,7.338,0,0,1,2.876-.591.2.2,0,0,1-.043.4,7.1,7.1,0,0,0-2.678.562.2.2,0,0,1-.077.016" transform="translate(-206.582 -26.066)" fill="#2e2e47"/>
          <path id="Path_4122" data-name="Path 4122" d="M339.827,49.632a.2.2,0,0,1-.161-.321,2.194,2.194,0,0,1,1.608-1.023,2.094,2.094,0,0,1,1.505.642.2.2,0,1,1-.295.273,1.692,1.692,0,0,0-1.192-.514,1.82,1.82,0,0,0-1.3.862.2.2,0,0,1-.162.081" transform="translate(-207.68 -29.526)" fill="#2e2e47"/>
          <path id="Path_4123" data-name="Path 4123" d="M362.389,48.019a.2.2,0,0,1-.17-.094,1.69,1.69,0,0,0-1.071-.744,1.389,1.389,0,0,0-1.11.572.2.2,0,0,1-.3-.269,1.756,1.756,0,0,1,1.444-.7,2.069,2.069,0,0,1,1.375.931.2.2,0,0,1-.17.308" transform="translate(-219.948 -28.603)" fill="#2e2e47"/>
          <path id="Path_4124" data-name="Path 4124" d="M351.092,67.583c3.229,3.064,5.239-.582,5.239-.582Z" transform="translate(-214.691 -40.971)" fill="#fff"/>
          <path id="Path_4125" data-name="Path 4125" d="M339.509,57.646c.121.668,1.065,1.056,2.108.867s1.79-.884,1.669-1.552-1.065-1.056-2.108-.866-1.79.884-1.669,1.552" transform="translate(-207.6 -34.272)" fill="#f2836d"/>
          <path id="Path_4126" data-name="Path 4126" d="M361.7,54.661c.111.611,1,.96,1.995.781s1.7-.821,1.593-1.432-1-.96-2-.781-1.7.821-1.593,1.432" transform="translate(-221.173 -32.52)" fill="#f2836d"/>
          <path id="Path_4127" data-name="Path 4127" d="M342.36,49.119c-.249.362.019,1.775.8,1.566s.869-1.565.36-1.687-1-.12-1.163.121" transform="translate(-209.297 -29.914)" fill="#2e2e47"/>
          <path id="Path_4128" data-name="Path 4128" d="M362.214,47.774c-.225.309-.109,1.508.674,1.334s.709-1.449.2-1.55-.7-.02-.874.216" transform="translate(-221.43 -29.056)" fill="#2e2e47"/>
          <path id="Path_4129" data-name="Path 4129" d="M324.5,172.2l6.937-6.937q-.03-.534-.063-1.074l-7.443,7.443-10.187-10.187,10.187-10.187,7.023,7.023q-.051-.619-.106-1.242l-6.349-6.349,5.039-5.039q-.072-.495-.147-.99l-5.46,5.46-10.187-10.187,10.187-10.187,3.213,3.213q-.182-.758-.373-1.509l-2.272-2.272,1.295-1.295q-.129-.439-.262-.875l-1.6,1.6L313.746,118.42l5.621-5.621q-.219-.351-.442-.693l-5.747,5.746-10.187-10.187,5.224-5.224c-.253-.109-.508-.215-.767-.314l-.041-.015-4.985,4.985-6.622-6.622q-.488.075-.96.177l7.014,7.013-10.187,10.187-8.264-8.264q-.214.354-.419.717l8.115,8.115-10.187,10.187-3.027-3.027q-.088.485-.169.968l2.628,2.628-3.4,3.4q-.058.631-.1,1.241l4.075-4.076L291.1,139.931l-10.187,10.187-4.835-4.835q-.037.532-.074,1.062l4.341,4.341-5.005,5.005q-.044.612-.087,1.223l5.66-5.66L291.1,161.441l-10.187,10.187-6.237-6.237q-.034.533-.068,1.068l5.738,5.738-6.418,6.418q-.028.593-.054,1.19l7.04-7.04L291.1,182.952l-7.733,7.733q.522.044,1.051.085l7.25-7.25,7.57,7.569q.542-.021,1.088-.048l-8.089-8.09,10.187-10.187,10.187,10.187-7.779,7.779q.627-.057,1.256-.12l7.091-7.091,5.067,5.067q.458-.108.915-.221l-5.415-5.415,10.187-10.187,8,8q-.006-.563-.014-1.15Zm-1.136-21.511-10.187,10.187-10.187-10.187L313.178,140.5Zm-20.942-.568-10.187-10.187,10.187-10.187,10.187,10.187Zm20.943-20.943-10.187,10.187-10.187-10.187,10.187-10.187Zm-20.943-20.943L312.61,118.42l-10.187,10.187L292.235,118.42ZM281.48,129.175l10.187-10.187,10.187,10.187-10.187,10.187Zm0,21.511L291.667,140.5l10.187,10.187-10.187,10.187Zm10.187,31.7L281.48,172.2l10.187-10.187L301.854,172.2Zm.568-20.943,10.187-10.187,10.187,10.187-10.187,10.187Zm20.943,20.943L302.991,172.2l10.187-10.187L323.366,172.2Z" transform="translate(-167.471 -61.439)" fill="#ffa982"/>
          <path id="Path_4130" data-name="Path 4130" d="M362.328,478.247a.2.2,0,0,1-.2-.185c-.075-.972-.151-2.263-.239-3.758a153.075,153.075,0,0,0-1.46-15.684,123.255,123.255,0,0,1-1.317-14.34.2.2,0,0,1,.4-.012,122.841,122.841,0,0,0,1.311,14.282,153.344,153.344,0,0,1,1.465,15.731c.088,1.493.164,2.783.239,3.751a.2.2,0,0,1-.185.216h-.016" transform="translate(-219.595 -271.547)" fill="#fff"/>
          <path id="Path_4131" data-name="Path 4131" d="M262.1,572.878a.2.2,0,0,1-.2-.155,13.124,13.124,0,0,1-.208-4.315.2.2,0,0,1,.4.056,12.97,12.97,0,0,0,.2,4.168.2.2,0,0,1-.15.241.186.186,0,0,1-.046.005" transform="translate(-159.974 -347.473)" fill="#2e2e47"/>
          <path id="Path_4132" data-name="Path 4132" d="M331.978,102.06s-5.97-3.718-6.491-3.466-.22.741-.622,1.727,3.114,6.31,3.817,6.059a40.32,40.32,0,0,0,4.068-2.908s4.972,1.8,5.223,1.351-2.511-5.751-2.963-6.241a4.816,4.816,0,0,0-1.209-.861Z" transform="translate(-198.634 -59.756)" fill="#fff"/>
          <path id="Path_4133" data-name="Path 4133" d="M336.007,113.689s2.572,1.908,4.982,1.557,1.557-3.817,1.557-3.817a22.571,22.571,0,0,0-4.14,0,19.723,19.723,0,0,0-2.4,2.26" transform="translate(-205.467 -68.07)" fill="#fff"/>
          <path id="Path_4134" data-name="Path 4134" d="M19.748,42.468s-7.906-1.925-11.29-.046S.063,51.174,0,54.958s1.047,4.755,4.145,4.38c2.9-.352,5.791-1.59,6.751-4.48s5.467-8.373,7.4-9.51,32.6,5.2,32.6,5.2l100.357,21.89,1.084-2.62Z" transform="translate(0 -25.437)" fill="#2e2e47"/>
          <path id="Path_4135" data-name="Path 4135" d="M330.756,105.233a61.614,61.614,0,0,1-1.527-6.69c-.228-1.911-.557-5.123-.131-5.878s1.727.159,1.727.159a1.467,1.467,0,0,1,1.325-.411l1.338.418a4.709,4.709,0,0,1,1.514.029c.52.162,1.463,1.409,1.463,1.409a1.022,1.022,0,0,1,1.095.152c.43.451,2.219,6.911.789,11.287s-6.185,4.944-7.593-.474" transform="translate(-201.116 -56.481)" fill="#ffa982"/>
          <path id="Path_4136" data-name="Path 4136" d="M326.1,43.47a8.173,8.173,0,0,1-.067-2.709c.268-.792.529-1.514.529-1.514s-2.615.579-2.693,1.127-.2,4.232.557,4.5,2.006.078,1.674-1.4" transform="translate(-198.007 -23.999)" fill="#9c6f43"/>
          <path id="Path_4137" data-name="Path 4137" d="M304.836,145.722s-1.75-21.532-10.716-19.278c-7.057,1.774-7.961,25.195-3.424,41.6,4.714-2.485,13.878-5.966,13.878-5.966Z" transform="translate(-176.055 -77.219)" fill="#fff"/>
          <path id="Path_4138" data-name="Path 4138" d="M316.268,121.538c-3.491.223-6.339.635-6.339.635l-.7,20.649-2.818,15.909s-6.608,3.929-11.322,6.413a36.866,36.866,0,0,0,4.862,11.205c4.753,6.727,14.972,7.547,21.679,1.407,10.119-9.265-.545-56.526-5.359-56.218" transform="translate(-180.444 -74.319)" fill="#ffa982"/>
          <path id="Path_4139" data-name="Path 4139" d="M404.416,756.814c-.677,1.372,2.653,3.207.9,3.757a6.1,6.1,0,0,1-5.6-1.167c-1.507-1.334-3.419-3.54-5.652-2.344.344-1.314-.589-8.71-.784-9.571-.23-1.017,13.943-2.1,13.946-1.383.028,6.569-.078,9.526-.078,9.526s-2.051-.189-2.728,1.182" transform="translate(-240.484 -456.098)" fill="#fff"/>
          <path id="Path_4140" data-name="Path 4140" d="M419.918,783.421c-2.887,2.177-5.549-1.319-7.645-.8s-3.338-1.273-5.417-.108-.8,1.7-2.611,1.3-9.394-8.136-13.907-4.826c.357-.979,1.352-5.514,1.742-6.079a1.829,1.829,0,0,0,.185-.5h0c2.233-1.195,4.145,1.011,5.652,2.345a6.106,6.106,0,0,0,5.6,1.167c1.758-.55-1.572-2.385-.9-3.757s2.728-1.183,2.728-1.183,1.127-.105,2.415,1.421a7.616,7.616,0,0,0,4.484,2.259c.822.052,9.288,3.9,9.288,3.9a4,4,0,0,1-1.618,4.862" transform="translate(-238.69 -471.444)" fill="#2e2e47"/>
          <path id="Path_4141" data-name="Path 4141" d="M385.757,789.13c4.514-3.309,12.1,4.423,13.907,4.826s.532-.136,2.611-1.3,3.321.624,5.417.108,4.758,2.981,7.645.8a4,4,0,0,0,1.618-4.862s.929-1.775,3.633-.905,4.8,2.748,3.406,5.754-8.086,4.573-11.577,5.014-4.505-.9-4.505-.9-.453-2.151-1.764-1-.872,1.654-.872,1.654l-6.638.141s-.878-3.39-2.285-2.595.478,2.683-1.516,3.441-11.573-1.561-11.956-3.884,2.519-5.323,2.876-6.3" transform="translate(-234.109 -481.589)" fill="#fff"/>
          <path id="Path_4142" data-name="Path 4142" d="M150.819,667.988c-1.514.22-1.137,4-2.587,2.868a6.106,6.106,0,0,1-2.213-5.274c.244-2,.977-4.823-1.274-5.985h0c1.278-.462,6.84-5.424,7.439-6.073.707-.766,9.637,10.294,9.047,10.7-5.395,3.748-7.891,5.337-7.891,5.337s-1.007-1.8-2.521-1.576" transform="translate(-88.511 -399.604)" fill="#fff"/>
          <path id="Path_4143" data-name="Path 4143" d="M141.1,698.24c-3.43-1.144-2.06-5.319-3.673-6.753s-.844-3.472-2.982-4.523-1.859.305-2.552-1.413,1.375-12.351-3.91-14.192c1.009-.262,5.309-2.013,6-2.012a1.833,1.833,0,0,0,.516-.131c2.251,1.162,1.518,3.988,1.274,5.985a6.1,6.1,0,0,0,2.213,5.274c1.45,1.136,1.073-2.647,2.587-2.868s2.521,1.577,2.521,1.577.726.868.2,2.795a7.615,7.615,0,0,0,.681,4.975c.423.707,2.053,9.863,2.053,9.863a4,4,0,0,1-4.922,1.424" transform="translate(-78.262 -409.222)" fill="#2e2e47"/>
          <path id="Path_4144" data-name="Path 4144" d="M116.539,674.732c5.285,1.842,3.216,12.474,3.91,14.192s.415.361,2.552,1.413,1.369,3.089,2.982,4.523.243,5.609,3.673,6.753a4,4,0,0,0,4.922-1.424s1.99-.241,2.806,2.479.458,5.513-2.808,6.068-8.352-4.068-10.7-6.694-1.815-4.22-1.815-4.22,1.515-1.592-.179-2.018-1.857.22-1.857.22l-3.88-5.387s2.294-2.645.842-3.353-1.939,1.915-3.694.7-5.277-10.418-3.58-12.051,5.812-.942,6.822-1.2" transform="translate(-66.817 -412.595)" fill="#fff"/>
          <path id="Path_4145" data-name="Path 4145" d="M272.83,326.052s1.783.678,13.46,1.431a130.366,130.366,0,0,0,21.261-.883c9.1-1,16.784-2.464,18.389-3.26l2.838-1.406.6,6.83s-8.486,2.05-23.629,4.239-34.229-1.527-34.229-1.527Z" transform="translate(-166.035 -196.861)" fill="#7f635d"/>
          <path id="Path_4146" data-name="Path 4146" d="M287.281,333.051l-1.707,8,5.491.469.569-7.868Z" transform="translate(-174.627 -203.659)" fill="#755048"/>
          <path id="Path_4147" data-name="Path 4147" d="M379.685,328.894l1.54,7.587,7.1-.657-2.344-8.2Z" transform="translate(-232.175 -200.339)" fill="#755048"/>
          <path id="Path_4148" data-name="Path 4148" d="M320.823,219.278h-.015a.2.2,0,0,1-.185-.215c.038-.507.944-12.453,2.186-16.358a.2.2,0,0,1,.383.122c-1.228,3.86-2.159,16.143-2.168,16.266a.2.2,0,0,1-.2.186" transform="translate(-196.059 -123.867)" fill="#2e2e47"/>
          <path id="Path_4149" data-name="Path 4149" d="M359.225,380.307a.2.2,0,0,1-.2-.2c0-.068-.123-6.889,0-11.527s1.3-16.594,1.315-16.714a.2.2,0,1,1,.4.04c-.012.12-1.191,12.059-1.314,16.685s0,11.441,0,11.509a.2.2,0,0,1-.2.2Z" transform="translate(-219.508 -215.055)" fill="#fff"/>
          <path id="Path_4150" data-name="Path 4150" d="M359.6,368.792c-.161,0-.263,0-.289,0a.2.2,0,0,1,.012-.4c1.241.035,4.595-.14,5.237-1.366s.64-10.436.545-15.129a.2.2,0,1,1,.4-.008c.011.558.266,13.69-.591,15.324-.772,1.472-4.27,1.584-5.315,1.584" transform="translate(-219.595 -215.055)" fill="#fff"/>
          <path id="Path_4151" data-name="Path 4151" d="M278.436,532.6c-2.556,0-5.256-.044-7.605-.178A85.082,85.082,0,0,1,256.68,530.2a.2.2,0,0,1,.1-.389,84.616,84.616,0,0,0,14.074,2.2c6.99.4,17.106,0,17.207,0a.2.2,0,0,1,.209.193.2.2,0,0,1-.193.209c-.068,0-4.57.178-9.641.178" transform="translate(-156.866 -323.974)" fill="#fff"/>
          <path id="Path_4152" data-name="Path 4152" d="M359.312,526.607a.2.2,0,0,1-.111-.368c.084-.056,8.547-5.639,17.8-6.139s13.569,1.247,13.748,1.321a.2.2,0,0,1-.154.371c-.044-.018-4.429-1.785-13.573-1.291s-17.519,6.016-17.6,6.071a.2.2,0,0,1-.111.034" transform="translate(-219.595 -317.984)" fill="#fff"/>
          <path id="Path_4153" data-name="Path 4153" d="M264.745,423.375h0a.2.2,0,0,1-.2-.206c0-.09.2-9.041.4-11.95.024-.343.055-.8.093-1.337.28-3.986.935-13.322,1.112-19.563l.039-1.366c.185-6.592.4-14.063.868-16.8.494-2.87,1.495-17.478,1.5-17.625a.2.2,0,0,1,.4.027c-.01.148-1.012,14.776-1.51,17.666-.467,2.713-.677,10.169-.862,16.747l-.039,1.366c-.178,6.249-.833,15.591-1.113,19.579-.038.542-.07.993-.093,1.336-.2,2.9-.4,11.842-.4,11.931a.2.2,0,0,1-.2.2" transform="translate(-161.767 -216.676)" fill="#fff"/>
        </g>
      </g>
    </g>
    <g id="Group_8694" data-name="Group 8694" transform="translate(1832.074 218.652)">
      <g id="Group_8693" data-name="Group 8693" clip-path="url(#clip-path-3)">
        <path id="Path_4807" data-name="Path 4807" d="M7.712,3.856A3.856,3.856,0,1,1,3.856,0,3.856,3.856,0,0,1,7.712,3.856" fill="#aecbfe"/>
        <path id="Path_4808" data-name="Path 4808" d="M7.712,51.294a3.856,3.856,0,1,1-3.856-3.856,3.856,3.856,0,0,1,3.856,3.856" transform="translate(0 -17.559)" fill="#aecbfe"/>
        <path id="Path_4809" data-name="Path 4809" d="M7.712,98.732a3.856,3.856,0,1,1-3.856-3.856,3.856,3.856,0,0,1,3.856,3.856" transform="translate(0 -35.118)" fill="#aecbfe"/>
        <path id="Path_4810" data-name="Path 4810" d="M7.712,146.17a3.856,3.856,0,1,1-3.856-3.856,3.856,3.856,0,0,1,3.856,3.856" transform="translate(0 -52.678)" fill="#aecbfe"/>
      </g>
    </g>
  </g>
</svg>
